<svg width="232" height="142" viewBox="0 0 232 142" fill="none" xmlns="http://www.w3.org/2000/svg">
<g clip-path="url(#clip0_728_4022)">
<rect width="232" height="142" fill="#EDEEF0"/>
<g filter="url(#filter0_dddd_728_4022)">
<g clip-path="url(#clip1_728_4022)">
<rect x="40" y="38" width="637" height="108.745" rx="1.87491" fill="white"/>
<rect width="604.658" height="88.1207" transform="translate(40 -9.81006)" fill="#F8F8F8"/>
<rect x="50" y="63" width="47" height="9" rx="2" fill="#2E3134"/>
<rect x="157" y="47" width="16" height="10" rx="2" fill="#2E3134"/>
<line x1="169.369" y1="135.73" x2="583.255" y2="135.73" stroke="#A9ABAF" stroke-width="0.468727" stroke-dasharray="3.75 3.75"/>
<line x1="152.729" y1="38.4688" x2="152.729" y2="357.672" stroke="#E1E2E6" stroke-width="0.468727"/>
<line x1="663.407" y1="78.5449" x2="31.563" y2="78.5449" stroke="#E1E2E6" stroke-width="0.468727"/>
<line x1="40" y1="99.6377" x2="590.286" y2="99.6377" stroke="#E1E2E6" stroke-width="0.468727"/>
<line x1="40" y1="123.542" x2="590.286" y2="123.542" stroke="#E1E2E6" stroke-width="0.468727"/>
<rect x="215.773" y="127.996" width="136.4" height="14.5305" rx="1.87491" fill="#81E488"/>
<rect x="195.149" y="104.559" width="14.5305" height="14.5305" rx="1.87491" fill="#81D0E4"/>
<g clip-path="url(#clip2_728_4022)">
<path d="M206.339 113.905H206.076V109.749L206.395 109.68C206.429 109.674 206.462 109.66 206.491 109.641C206.521 109.621 206.546 109.596 206.565 109.567C206.585 109.538 206.598 109.505 206.605 109.47C206.611 109.436 206.611 109.4 206.604 109.366C206.596 109.331 206.582 109.299 206.562 109.27C206.542 109.241 206.516 109.216 206.486 109.198C206.457 109.179 206.423 109.166 206.389 109.161C206.354 109.155 206.318 109.156 206.284 109.165L198.902 110.747C198.838 110.76 198.782 110.797 198.744 110.85C198.706 110.902 198.688 110.967 198.695 111.032C198.702 111.097 198.733 111.157 198.781 111.2C198.829 111.244 198.892 111.268 198.957 111.268C198.976 111.268 198.994 111.266 199.013 111.262L199.221 111.217V113.905H198.957C198.887 113.905 198.82 113.932 198.771 113.982C198.721 114.031 198.693 114.098 198.693 114.168C198.693 114.238 198.721 114.305 198.771 114.355C198.82 114.404 198.887 114.432 198.957 114.432H206.339C206.409 114.432 206.476 114.404 206.526 114.355C206.575 114.305 206.603 114.238 206.603 114.168C206.603 114.098 206.575 114.031 206.526 113.982C206.476 113.932 206.409 113.905 206.339 113.905ZM204.494 113.905H200.803V113.377H204.494V113.905ZM204.494 112.85H200.803V112.323H204.494V112.85Z" fill="white"/>
</g>
<rect x="161.869" y="128.464" width="14.5305" height="14.5305" rx="1.87491" fill="#81E488"/>
<g clip-path="url(#clip3_728_4022)">
<path d="M173.06 137.809H172.796V133.653L173.115 133.585C173.149 133.578 173.182 133.565 173.212 133.546C173.241 133.526 173.266 133.501 173.286 133.472C173.305 133.442 173.319 133.41 173.325 133.375C173.332 133.34 173.331 133.305 173.324 133.27C173.317 133.236 173.302 133.203 173.282 133.175C173.262 133.146 173.236 133.121 173.207 133.103C173.177 133.084 173.144 133.071 173.109 133.065C173.074 133.06 173.039 133.061 173.004 133.069L165.622 134.651C165.558 134.665 165.502 134.702 165.464 134.755C165.426 134.807 165.408 134.872 165.415 134.937C165.422 135.002 165.453 135.061 165.501 135.105C165.549 135.149 165.612 135.173 165.677 135.173C165.696 135.173 165.715 135.171 165.733 135.167L165.941 135.122V137.809H165.677C165.607 137.809 165.54 137.837 165.491 137.887C165.441 137.936 165.414 138.003 165.414 138.073C165.414 138.143 165.441 138.21 165.491 138.259C165.54 138.309 165.607 138.337 165.677 138.337H173.06C173.13 138.337 173.197 138.309 173.246 138.259C173.296 138.21 173.323 138.143 173.323 138.073C173.323 138.003 173.296 137.936 173.246 137.887C173.197 137.837 173.13 137.809 173.06 137.809ZM171.214 137.809H167.523V137.282H171.214V137.809ZM171.214 136.755H167.523V136.227H171.214V136.755Z" fill="white"/>
</g>
<line x1="152.495" y1="88.8574" x2="245.302" y2="88.8574" stroke="#A9ABAF" stroke-width="0.468727" stroke-dasharray="3.75 3.75"/>
<rect x="157.651" y="81.5913" width="46.8727" height="14.5305" rx="1.87491" fill="#E69661"/>
<rect x="50" y="85" width="11" height="9" rx="1.48781" fill="#E69661"/>
<rect x="50" y="109" width="11" height="9" rx="1.48781" fill="#81D0E4"/>
<rect x="50" y="132" width="11" height="9" rx="1.48781" fill="#81E488"/>
<line x1="210.148" y1="112.762" x2="249.052" y2="112.762" stroke="#A9ABAF" stroke-width="0.468727" stroke-dasharray="3.75 3.75"/>
<rect x="71" y="85" width="47" height="9" rx="2" fill="#E1E2E6"/>
<rect x="70" y="109" width="47" height="9" rx="2" fill="#E1E2E6"/>
<rect x="70" y="131" width="47" height="9" rx="2" fill="#E1E2E6"/>
</g>
</g>
<rect x="152" y="24.3813" width="53.271" height="18.8168" rx="2.4542" fill="#1A69D9"/>
<path d="M160.388 36.3705C159.79 36.3705 159.36 36.2331 159.1 35.9582C158.84 35.6834 158.71 35.2907 158.71 34.7802V32.2548H159.498V34.8023C159.498 35.1115 159.569 35.3422 159.711 35.4944C159.858 35.6465 160.084 35.7226 160.388 35.7226C160.693 35.7226 160.919 35.6465 161.066 35.4944C161.213 35.3422 161.287 35.1115 161.287 34.8023V30.8044H162.074V34.7802C162.074 35.2907 161.942 35.6834 161.677 35.9582C161.417 36.2331 160.987 36.3705 160.388 36.3705ZM164.44 36.3705C164.15 36.3705 163.873 36.3411 163.608 36.2822C163.348 36.2233 163.124 36.1497 162.938 36.0613L163.166 35.4281C163.269 35.4723 163.387 35.5189 163.519 35.568C163.652 35.6122 163.797 35.6515 163.954 35.6858C164.111 35.7153 164.27 35.73 164.432 35.73C164.678 35.73 164.874 35.6883 165.021 35.6048C165.174 35.5165 165.25 35.3889 165.25 35.222C165.25 35.1189 165.218 35.0305 165.154 34.9569C165.09 34.8784 164.994 34.8097 164.867 34.7508C164.739 34.687 164.58 34.6231 164.388 34.5593C164.094 34.4612 163.843 34.3581 163.637 34.2501C163.431 34.1372 163.274 34.0047 163.166 33.8525C163.058 33.6955 163.004 33.5016 163.004 33.2709C163.004 33.0451 163.063 32.8512 163.181 32.6892C163.303 32.5273 163.483 32.4021 163.718 32.3137C163.959 32.2205 164.256 32.1739 164.609 32.1739C164.855 32.1739 165.083 32.1959 165.294 32.2401C165.51 32.2794 165.677 32.3358 165.795 32.4095V33.0574C165.711 33.0181 165.606 32.9788 165.478 32.9396C165.35 32.9003 165.21 32.8684 165.058 32.8439C164.911 32.8193 164.761 32.807 164.609 32.807C164.315 32.807 164.104 32.8512 163.976 32.9396C163.853 33.023 163.792 33.1236 163.792 33.2414C163.792 33.3396 163.824 33.423 163.888 33.4918C163.951 33.5605 164.057 33.6267 164.204 33.6906C164.351 33.7495 164.543 33.8206 164.778 33.9041C165.019 33.9875 165.235 34.0808 165.426 34.1838C165.618 34.2869 165.768 34.417 165.875 34.5741C165.983 34.7311 166.037 34.9275 166.037 35.1631C166.037 35.3741 165.986 35.5729 165.883 35.7594C165.785 35.9411 165.618 36.0883 165.382 36.2012C165.152 36.3141 164.837 36.3705 164.44 36.3705ZM164.986 31.6364C164.775 31.6364 164.608 31.6069 164.485 31.548C164.357 31.4842 164.267 31.4057 164.213 31.3124C164.154 31.2143 164.124 31.1112 164.124 31.0032C164.124 30.9247 164.137 30.8412 164.161 30.7529C164.181 30.6645 164.21 30.5884 164.25 30.5246L164.875 30.6203C164.866 30.6449 164.856 30.6792 164.846 30.7234C164.836 30.7676 164.831 30.8093 164.831 30.8486C164.831 30.9124 164.851 30.9664 164.89 31.0106C164.929 31.0547 164.998 31.0768 165.096 31.0768H166.878V31.6364H164.986ZM168.571 36.3705C167.972 36.3705 167.542 36.2331 167.282 35.9582C167.022 35.6834 166.892 35.2907 166.892 34.7802V32.2548H167.68V34.8023C167.68 35.1115 167.751 35.3422 167.893 35.4944C168.041 35.6465 168.266 35.7226 168.571 35.7226C168.875 35.7226 169.101 35.6465 169.248 35.4944C169.395 35.3422 169.469 35.1115 169.469 34.8023V32.2548H170.257V34.7802C170.257 35.2907 170.124 35.6834 169.859 35.9582C169.599 36.2331 169.17 36.3705 168.571 36.3705ZM172.387 36.3632C172.225 36.3632 172.077 36.3386 171.945 36.2896C171.817 36.2356 171.714 36.1497 171.636 36.0319C171.557 35.9091 171.518 35.7447 171.518 35.5386V32.2548H172.306V35.4429C172.306 35.5508 172.328 35.6294 172.372 35.6785C172.421 35.7226 172.497 35.7447 172.6 35.7447C172.639 35.7447 172.684 35.7398 172.733 35.73C172.782 35.7202 172.828 35.7079 172.873 35.6932L172.961 36.2454C172.868 36.2896 172.772 36.319 172.674 36.3337C172.581 36.3534 172.485 36.3632 172.387 36.3632ZM174.456 36.3632C174.294 36.3632 174.146 36.3386 174.014 36.2896C173.886 36.2356 173.783 36.1497 173.705 36.0319C173.626 35.9091 173.587 35.7447 173.587 35.5386V32.2548H174.375V35.4429C174.375 35.5508 174.397 35.6294 174.441 35.6785C174.49 35.7226 174.566 35.7447 174.669 35.7447C174.708 35.7447 174.752 35.7398 174.802 35.73C174.851 35.7202 174.897 35.7079 174.941 35.6932L175.03 36.2454C174.937 36.2896 174.841 36.319 174.743 36.3337C174.649 36.3534 174.554 36.3632 174.456 36.3632ZM177.136 36.3632C176.719 36.3632 176.395 36.2699 176.164 36.0834C175.934 35.8969 175.772 35.6416 175.678 35.3177C175.59 34.9937 175.546 34.6207 175.546 34.1986C175.546 33.7175 175.59 33.3298 175.678 33.0353C175.772 32.7408 175.909 32.5248 176.091 32.3874C176.272 32.2499 176.493 32.1812 176.753 32.1812C176.925 32.1812 177.072 32.2131 177.195 32.2769C177.318 32.3358 177.409 32.4389 177.467 32.5862H177.497C177.551 32.434 177.644 32.3285 177.777 32.2696C177.914 32.2107 178.071 32.1812 178.248 32.1812C178.572 32.1812 178.82 32.2671 178.991 32.4389C179.168 32.6107 179.257 32.8708 179.257 33.2193V36.2896H178.469V33.2856C178.469 33.1089 178.432 32.9886 178.358 32.9248C178.285 32.861 178.189 32.8291 178.071 32.8291C177.944 32.8291 177.85 32.861 177.791 32.9248C177.732 32.9886 177.696 33.0942 177.681 33.2414H177.261C177.242 33.0795 177.193 32.9715 177.114 32.9175C177.04 32.8586 176.957 32.8291 176.864 32.8291C176.692 32.8291 176.559 32.9347 176.466 33.1457C176.378 33.3568 176.334 33.7102 176.334 34.2059C176.334 34.525 176.358 34.7999 176.407 35.0305C176.456 35.2563 176.545 35.4306 176.672 35.5533C176.805 35.6711 176.996 35.73 177.247 35.73C177.33 35.73 177.401 35.7251 177.46 35.7153C177.524 35.7055 177.58 35.6932 177.629 35.6785L177.71 36.2675C177.637 36.3018 177.548 36.3264 177.445 36.3411C177.347 36.3558 177.244 36.3632 177.136 36.3632ZM178.364 31.6364V30.0534H179.115V31.6364H178.364ZM181.065 36.2896L179.828 32.2548H180.623L181.661 35.6269H181.735C181.838 35.6269 181.939 35.5999 182.037 35.5459C182.14 35.4919 182.226 35.4232 182.295 35.3398C182.427 35.1876 182.525 34.9962 182.589 34.7655C182.653 34.5348 182.685 34.3066 182.685 34.0808C182.685 33.6979 182.601 33.3985 182.434 33.1825C182.268 32.9666 182.037 32.8586 181.742 32.8586C181.683 32.8586 181.627 32.8635 181.573 32.8733C181.519 32.8782 181.475 32.888 181.44 32.9028L181.264 32.2843C181.372 32.2548 181.472 32.2352 181.566 32.2254C181.659 32.2156 181.74 32.2107 181.809 32.2107C182.059 32.2107 182.28 32.2475 182.471 32.3211C182.668 32.3898 182.834 32.4929 182.972 32.6303C183.144 32.7972 183.271 33.0058 183.355 33.2562C183.438 33.5065 183.48 33.7838 183.48 34.0881C183.48 34.4759 183.419 34.8195 183.296 35.1189C183.178 35.4134 183.031 35.649 182.854 35.8257C182.707 35.9681 182.528 36.0809 182.317 36.1644C182.106 36.2478 181.831 36.2896 181.492 36.2896H181.065ZM185.401 36.3632C185.239 36.3632 185.091 36.3386 184.959 36.2896C184.831 36.2356 184.728 36.1497 184.65 36.0319C184.571 35.9091 184.532 35.7447 184.532 35.5386V32.2548H185.32V35.4429C185.32 35.5508 185.342 35.6294 185.386 35.6785C185.435 35.7226 185.511 35.7447 185.614 35.7447C185.653 35.7447 185.698 35.7398 185.747 35.73C185.796 35.7202 185.842 35.7079 185.887 35.6932L185.975 36.2454C185.882 36.2896 185.786 36.319 185.688 36.3337C185.594 36.3534 185.499 36.3632 185.401 36.3632ZM187.47 36.3632C187.308 36.3632 187.16 36.3386 187.028 36.2896C186.9 36.2356 186.797 36.1497 186.719 36.0319C186.64 35.9091 186.601 35.7447 186.601 35.5386V32.2548H187.389V35.4429C187.389 35.5508 187.411 35.6294 187.455 35.6785C187.504 35.7226 187.58 35.7447 187.683 35.7447C187.722 35.7447 187.766 35.7398 187.816 35.73C187.865 35.7202 187.911 35.7079 187.955 35.6932L188.044 36.2454C187.951 36.2896 187.855 36.319 187.757 36.3337C187.663 36.3534 187.568 36.3632 187.47 36.3632ZM188.727 36.2896V34.9422C188.727 34.633 188.794 34.4047 188.926 34.2575C189.059 34.1102 189.233 34.0071 189.449 33.9482L189.456 33.9188L188.654 33.6169V33.3887C188.654 33.1776 188.72 32.9788 188.853 32.7923C188.99 32.6058 189.186 32.4561 189.442 32.3432C189.697 32.2303 190.006 32.1739 190.369 32.1739C190.688 32.1739 190.978 32.2254 191.238 32.3285C191.498 32.4266 191.704 32.5813 191.856 32.7923C192.009 33.0034 192.085 33.2782 192.085 33.6169V36.2896H191.297V33.6832C191.297 33.3789 191.209 33.1604 191.032 33.0279C190.855 32.8905 190.629 32.8218 190.354 32.8218C190.075 32.8218 189.856 32.8807 189.699 32.9985C189.542 33.1114 189.461 33.2562 189.456 33.4329L190.215 33.801L190.148 34.1912C189.967 34.1961 189.815 34.2575 189.692 34.3753C189.574 34.4931 189.515 34.6747 189.515 34.9201V36.2896H188.727ZM189.894 31.6437V31.3051C189.983 31.2854 190.076 31.2584 190.174 31.2241C190.272 31.1848 190.356 31.1357 190.425 31.0768C190.488 31.013 190.52 30.9369 190.52 30.8486C190.52 30.7897 190.503 30.7406 190.469 30.7013C190.429 30.6572 190.373 30.6351 190.299 30.6351C190.255 30.6351 190.209 30.6449 190.159 30.6645C190.11 30.6792 190.066 30.694 190.027 30.7087L189.88 30.2817C189.978 30.2031 190.091 30.1516 190.218 30.127C190.346 30.0976 190.452 30.0829 190.535 30.0829C190.736 30.0829 190.896 30.1369 191.014 30.2449C191.126 30.3528 191.183 30.4952 191.183 30.6719C191.183 30.7995 191.151 30.9124 191.087 31.0106C191.018 31.1087 190.933 31.1873 190.829 31.2462L190.771 31.0695H192.214V31.6437H189.894ZM193.465 32.9911V31.7468C193.465 31.5603 193.482 31.4106 193.516 31.2977C193.551 31.1799 193.597 31.0842 193.656 31.0106C193.715 30.9369 193.776 30.8756 193.84 30.8265L193.833 30.797H192.596L192.773 30.2007H194.93V30.797C194.748 30.797 194.589 30.8559 194.451 30.9737C194.319 31.0916 194.252 31.3075 194.252 31.6217V32.9911H193.465ZM194.326 36.3632C194.169 36.3632 194.024 36.3386 193.892 36.2896C193.764 36.2356 193.661 36.1497 193.582 36.0319C193.504 35.9091 193.465 35.7447 193.465 35.5386V32.2548H194.252V35.4429C194.252 35.5508 194.275 35.6294 194.319 35.6785C194.368 35.7226 194.441 35.7447 194.54 35.7447C194.584 35.7447 194.63 35.7398 194.679 35.73C194.729 35.7202 194.773 35.7079 194.812 35.6932L194.908 36.2454C194.814 36.2896 194.719 36.319 194.621 36.3337C194.522 36.3534 194.424 36.3632 194.326 36.3632ZM196.931 36.3705C196.445 36.3705 196.072 36.2552 195.812 36.0245C195.552 35.7938 195.422 35.4527 195.422 35.0011V34.5962C195.422 34.3655 195.454 34.1814 195.517 34.044C195.581 33.9016 195.652 33.7789 195.731 33.6758C195.814 33.5629 195.883 33.4648 195.937 33.3813C195.996 33.2979 196.025 33.1997 196.025 33.0868C196.025 32.9886 196.001 32.9199 195.952 32.8807C195.908 32.8365 195.846 32.8144 195.768 32.8144C195.714 32.8144 195.655 32.8242 195.591 32.8439C195.532 32.8586 195.471 32.8807 195.407 32.9101L195.245 32.38C195.348 32.3162 195.468 32.272 195.606 32.2475C195.748 32.218 195.871 32.2033 195.974 32.2033C196.165 32.2033 196.32 32.2377 196.438 32.3064C196.555 32.3702 196.639 32.461 196.688 32.5788C196.742 32.6917 196.769 32.8267 196.769 32.9837C196.769 33.1555 196.74 33.3003 196.681 33.4181C196.627 33.5359 196.56 33.6513 196.482 33.7642C196.403 33.8869 196.337 34.0022 196.283 34.1102C196.229 34.2182 196.202 34.363 196.202 34.5446V34.9422C196.202 35.1483 196.234 35.3103 196.298 35.4281C196.367 35.541 196.457 35.622 196.57 35.6711C196.683 35.7153 196.803 35.7374 196.931 35.7374C197.162 35.7374 197.336 35.6809 197.454 35.568C197.576 35.4502 197.638 35.2784 197.638 35.0526V32.2548H198.426V35.0821C198.426 35.4944 198.298 35.8134 198.043 36.0392C197.792 36.2601 197.422 36.3705 196.931 36.3705Z" fill="white"/>
<rect x="13" y="102.761" width="50.099" height="20.4792" rx="2.61979" fill="#1A69D9"/>
<path d="M19.8955 111.026V110.284H24.3192V111.026H22.5358V116H21.6762V111.026H19.8955ZM25.2298 116V111.713H26.0643V116H25.2298ZM25.6512 111.052C25.5061 111.052 25.3814 111.003 25.2772 110.906C25.1749 110.808 25.1237 110.691 25.1237 110.555C25.1237 110.417 25.1749 110.3 25.2772 110.203C25.3814 110.105 25.5061 110.055 25.6512 110.055C25.7963 110.055 25.9201 110.105 26.0224 110.203C26.1266 110.3 26.1787 110.417 26.1787 110.555C26.1787 110.691 26.1266 110.808 26.0224 110.906C25.9201 111.003 25.7963 111.052 25.6512 111.052ZM27.1869 116V111.713H27.9879V112.411H28.041C28.1303 112.175 28.2763 111.99 28.4792 111.858C28.682 111.724 28.9248 111.657 29.2076 111.657C29.4941 111.657 29.7342 111.724 29.9277 111.858C30.123 111.992 30.2672 112.176 30.3603 112.411H30.4049C30.5073 112.182 30.6701 112 30.8933 111.864C31.1166 111.726 31.3827 111.657 31.6916 111.657C32.0804 111.657 32.3977 111.779 32.6433 112.023C32.8907 112.267 33.0145 112.634 33.0145 113.125V116H32.18V113.203C32.18 112.913 32.1009 112.703 31.9427 112.573C31.7846 112.442 31.5957 112.377 31.3762 112.377C31.1045 112.377 30.8933 112.461 30.7426 112.629C30.5919 112.794 30.5166 113.007 30.5166 113.268V116H29.6849V113.15C29.6849 112.918 29.6123 112.731 29.4672 112.589C29.322 112.448 29.1332 112.377 28.9006 112.377C28.7424 112.377 28.5964 112.419 28.4624 112.503C28.3303 112.585 28.2233 112.699 28.1414 112.846C28.0614 112.993 28.0214 113.163 28.0214 113.357V116H27.1869ZM35.9806 116.087C35.5582 116.087 35.1945 115.996 34.8893 115.816C34.586 115.633 34.3516 115.378 34.186 115.048C34.0223 114.717 33.9404 114.329 33.9404 113.884C33.9404 113.445 34.0223 113.058 34.186 112.723C34.3516 112.388 34.5823 112.127 34.8782 111.939C35.1759 111.751 35.5238 111.657 35.922 111.657C36.1639 111.657 36.3983 111.697 36.6253 111.777C36.8523 111.857 37.056 111.983 37.2365 112.154C37.417 112.325 37.5593 112.548 37.6635 112.821C37.7677 113.093 37.8198 113.423 37.8198 113.812V114.108H34.4121V113.483H37.0021C37.0021 113.263 36.9574 113.069 36.8681 112.899C36.7788 112.728 36.6532 112.593 36.4913 112.495C36.3313 112.396 36.1434 112.347 35.9276 112.347C35.6931 112.347 35.4884 112.404 35.3135 112.52C35.1405 112.633 35.0065 112.782 34.9116 112.966C34.8186 113.149 34.7721 113.347 34.7721 113.561V114.049C34.7721 114.336 34.8223 114.579 34.9228 114.78C35.0251 114.981 35.1675 115.135 35.3498 115.241C35.5322 115.345 35.7452 115.397 35.989 115.397C36.1471 115.397 36.2913 115.375 36.4216 115.33C36.5518 115.284 36.6644 115.215 36.7593 115.124C36.8542 115.032 36.9267 114.92 36.977 114.786L37.7668 114.928C37.7035 115.161 37.59 115.365 37.4263 115.539C37.2644 115.713 37.0607 115.847 36.8151 115.944C36.5713 116.039 36.2932 116.087 35.9806 116.087ZM40.8927 116V110.284H41.7551V115.258H44.3451V116H40.8927ZM45.262 116V111.713H46.0965V116H45.262ZM45.6834 111.052C45.5383 111.052 45.4136 111.003 45.3094 110.906C45.2071 110.808 45.1559 110.691 45.1559 110.555C45.1559 110.417 45.2071 110.3 45.3094 110.203C45.4136 110.105 45.5383 110.055 45.6834 110.055C45.8285 110.055 45.9523 110.105 46.0546 110.203C46.1588 110.3 46.2109 110.417 46.2109 110.555C46.2109 110.691 46.1588 110.808 46.0546 110.906C45.9523 111.003 45.8285 111.052 45.6834 111.052ZM48.0536 113.455V116H47.2191V111.713H48.0201V112.411H48.0732C48.1718 112.184 48.3262 112.001 48.5365 111.864C48.7486 111.726 49.0156 111.657 49.3375 111.657C49.6296 111.657 49.8854 111.719 50.105 111.841C50.3246 111.962 50.4948 112.143 50.6157 112.383C50.7367 112.623 50.7972 112.92 50.7972 113.273V116H49.9627V113.374C49.9627 113.063 49.8817 112.82 49.7198 112.645C49.558 112.468 49.3356 112.38 49.0528 112.38C48.8593 112.38 48.6872 112.422 48.5365 112.506C48.3876 112.589 48.2695 112.712 48.182 112.874C48.0964 113.034 48.0536 113.228 48.0536 113.455ZM53.764 116.087C53.3416 116.087 52.9778 115.996 52.6727 115.816C52.3694 115.633 52.135 115.378 51.9694 115.048C51.8056 114.717 51.7238 114.329 51.7238 113.884C51.7238 113.445 51.8056 113.058 51.9694 112.723C52.135 112.388 52.3657 112.127 52.6615 111.939C52.9592 111.751 53.3072 111.657 53.7054 111.657C53.9472 111.657 54.1817 111.697 54.4087 111.777C54.6357 111.857 54.8394 111.983 55.0199 112.154C55.2004 112.325 55.3427 112.548 55.4469 112.821C55.5511 113.093 55.6032 113.423 55.6032 113.812V114.108H52.1954V113.483H54.7855C54.7855 113.263 54.7408 113.069 54.6515 112.899C54.5622 112.728 54.4366 112.593 54.2747 112.495C54.1147 112.396 53.9268 112.347 53.7109 112.347C53.4765 112.347 53.2718 112.404 53.0969 112.52C52.9239 112.633 52.7899 112.782 52.695 112.966C52.602 113.149 52.5555 113.347 52.5555 113.561V114.049C52.5555 114.336 52.6057 114.579 52.7062 114.78C52.8085 114.981 52.9509 115.135 53.1332 115.241C53.3155 115.345 53.5286 115.397 53.7723 115.397C53.9305 115.397 54.0747 115.375 54.2049 115.33C54.3352 115.284 54.4478 115.215 54.5426 115.124C54.6375 115.032 54.7101 114.92 54.7603 114.786L55.5502 114.928C55.4869 115.161 55.3734 115.365 55.2097 115.539C55.0478 115.713 54.8441 115.847 54.5985 115.944C54.3547 116.039 54.0766 116.087 53.764 116.087Z" fill="white"/>
<rect x="157" y="61" width="15.9367" height="13.386" rx="0.937454" fill="#EDEEF0"/>
<rect x="162.937" y="66" width="4.06323" height="3.38603" rx="1.35441" fill="#2E3134"/>
<rect x="174.937" y="61" width="15.9367" height="13.386" rx="0.937454" fill="#EDEEF0"/>
<rect x="180.874" y="66" width="4.06323" height="3.38603" rx="1.35441" fill="#2E3134"/>
<rect x="192.873" y="61" width="15.9367" height="13.386" rx="0.937454" fill="#EDEEF0"/>
<rect x="198.81" y="66" width="4.06323" height="3.38603" rx="1.35441" fill="#2E3134"/>
<rect x="210.81" y="61" width="15.9367" height="13.386" rx="0.937454" fill="#EDEEF0"/>
<rect x="216.747" y="66" width="4.06323" height="3.38603" rx="1.35441" fill="#2E3134"/>
<rect x="228.747" y="61" width="15.9367" height="13.386" rx="0.937454" fill="#EDEEF0"/>
</g>
<defs>
<filter id="filter0_dddd_728_4022" x="-98" y="22" width="808" height="385.745" filterUnits="userSpaceOnUse" color-interpolation-filters="sRGB">
<feFlood flood-opacity="0" result="BackgroundImageFix"/>
<feColorMatrix in="SourceAlpha" type="matrix" values="0 0 0 0 0 0 0 0 0 0 0 0 0 0 0 0 0 0 127 0" result="hardAlpha"/>
<feOffset dx="-4" dy="11"/>
<feGaussianBlur stdDeviation="13.5"/>
<feColorMatrix type="matrix" values="0 0 0 0 0 0 0 0 0 0 0 0 0 0 0 0 0 0 0.1 0"/>
<feBlend mode="normal" in2="BackgroundImageFix" result="effect1_dropShadow_728_4022"/>
<feColorMatrix in="SourceAlpha" type="matrix" values="0 0 0 0 0 0 0 0 0 0 0 0 0 0 0 0 0 0 127 0" result="hardAlpha"/>
<feOffset dx="-15" dy="46"/>
<feGaussianBlur stdDeviation="24"/>
<feColorMatrix type="matrix" values="0 0 0 0 0 0 0 0 0 0 0 0 0 0 0 0 0 0 0.09 0"/>
<feBlend mode="normal" in2="effect1_dropShadow_728_4022" result="effect2_dropShadow_728_4022"/>
<feColorMatrix in="SourceAlpha" type="matrix" values="0 0 0 0 0 0 0 0 0 0 0 0 0 0 0 0 0 0 127 0" result="hardAlpha"/>
<feOffset dx="-34" dy="103"/>
<feGaussianBlur stdDeviation="32.5"/>
<feColorMatrix type="matrix" values="0 0 0 0 0 0 0 0 0 0 0 0 0 0 0 0 0 0 0.05 0"/>
<feBlend mode="normal" in2="effect2_dropShadow_728_4022" result="effect3_dropShadow_728_4022"/>
<feColorMatrix in="SourceAlpha" type="matrix" values="0 0 0 0 0 0 0 0 0 0 0 0 0 0 0 0 0 0 127 0" result="hardAlpha"/>
<feOffset dx="-61" dy="184"/>
<feGaussianBlur stdDeviation="38.5"/>
<feColorMatrix type="matrix" values="0 0 0 0 0 0 0 0 0 0 0 0 0 0 0 0 0 0 0.01 0"/>
<feBlend mode="normal" in2="effect3_dropShadow_728_4022" result="effect4_dropShadow_728_4022"/>
<feBlend mode="normal" in="SourceGraphic" in2="effect4_dropShadow_728_4022" result="shape"/>
</filter>
<clipPath id="clip0_728_4022">
<rect width="232" height="142" fill="white"/>
</clipPath>
<clipPath id="clip1_728_4022">
<rect x="40" y="38" width="637" height="108.745" rx="1.87491" fill="white"/>
</clipPath>
<clipPath id="clip2_728_4022">
<rect width="8.43709" height="8.43709" fill="white" transform="translate(197.961 107.84)"/>
</clipPath>
<clipPath id="clip3_728_4022">
<rect width="8.43709" height="8.43709" fill="white" transform="translate(164.681 131.746)"/>
</clipPath>
</defs>
</svg>
