<svg width="449" height="213" viewBox="0 0 449 213" fill="none" xmlns="http://www.w3.org/2000/svg">
<rect x="163.736" y="10.7255" width="225.345" height="155.884" transform="rotate(3.37046 163.736 10.7255)" fill="#E36A6A"/>
<rect x="24.791" y="16.0647" width="172.037" height="185.311" transform="rotate(-5.35805 24.791 16.0647)" fill="#FDC635" fill-opacity="0.7"/>
<rect width="251.191" height="93.5203" transform="translate(93.7266 64.2864) rotate(-1.36025)" fill="black"/>
<path d="M111.661 107.807L112.825 99.486L113.796 99.4629L112.633 107.784L111.661 107.807ZM107.857 105.678L107.992 104.703L114.273 104.554L114.138 105.529L107.857 105.678ZM108.747 107.876L109.91 99.5552L110.882 99.5321L109.719 107.853L108.747 107.876ZM108.27 102.785L108.405 101.81L114.686 101.661L114.552 102.636L108.27 102.785ZM116.961 99.3878L117.158 107.677L115.907 107.706L115.71 99.4175L116.961 99.3878ZM121.662 107.57L118.979 107.633L118.782 99.3445L121.55 99.2788C122.363 99.2595 123.064 99.4089 123.655 99.7269C124.245 100.042 124.703 100.505 125.028 101.116C125.356 101.723 125.53 102.458 125.55 103.318C125.571 104.182 125.43 104.928 125.129 105.556C124.831 106.184 124.389 106.672 123.804 107.021C123.218 107.367 122.504 107.55 121.662 107.57ZM120.204 106.511L121.567 106.478C122.199 106.464 122.721 106.332 123.133 106.085C123.546 105.835 123.851 105.481 124.048 105.023C124.245 104.562 124.335 104.003 124.32 103.348C124.304 102.697 124.187 102.148 123.969 101.7C123.753 101.251 123.439 100.915 123.026 100.689C122.613 100.464 122.104 100.359 121.499 100.373L120.059 100.408L120.204 106.511ZM130.039 99.0772L130.235 107.366L128.981 107.396L128.814 100.362L128.765 100.363L126.813 101.705L126.784 100.507L128.82 99.1062L130.039 99.0772ZM135.216 107.361C134.709 107.373 134.251 107.287 133.841 107.102C133.435 106.915 133.107 106.653 132.859 106.316C132.611 105.979 132.473 105.591 132.446 105.151L133.661 105.122C133.699 105.478 133.864 105.767 134.155 105.989C134.446 106.212 134.792 106.318 135.191 106.309C135.51 106.301 135.79 106.222 136.032 106.07C136.277 105.916 136.466 105.708 136.6 105.445C136.737 105.183 136.802 104.886 136.794 104.554C136.786 104.217 136.706 103.917 136.554 103.656C136.402 103.396 136.196 103.193 135.936 103.048C135.679 102.902 135.385 102.832 135.056 102.838C134.805 102.844 134.554 102.893 134.302 102.985C134.051 103.077 133.848 103.196 133.695 103.34L132.546 103.197L132.912 99.009L137.469 98.9008L137.495 99.9733L133.978 100.057L133.77 102.382L133.818 102.381C133.976 102.221 134.188 102.085 134.452 101.973C134.72 101.862 135.007 101.802 135.315 101.795C135.819 101.783 136.272 101.892 136.671 102.123C137.073 102.354 137.393 102.674 137.629 103.084C137.869 103.492 137.993 103.964 138.003 104.501C138.019 105.038 137.909 105.519 137.673 105.946C137.44 106.373 137.111 106.713 136.685 106.966C136.262 107.216 135.772 107.348 135.216 107.361ZM142.442 107.19C142.072 107.193 141.706 107.134 141.344 107.013C140.985 106.892 140.656 106.684 140.357 106.389C140.059 106.093 139.816 105.693 139.628 105.187C139.443 104.681 139.342 104.047 139.324 103.283C139.307 102.56 139.363 101.916 139.493 101.351C139.625 100.787 139.823 100.308 140.086 99.9158C140.349 99.5208 140.672 99.2176 141.053 99.006C141.434 98.7945 141.864 98.6831 142.345 98.6716C142.838 98.6599 143.279 98.7466 143.667 98.9318C144.055 99.117 144.371 99.3781 144.617 99.7151C144.865 100.052 145.027 100.438 145.102 100.874L143.868 100.903C143.776 100.56 143.603 100.282 143.35 100.069C143.096 99.8565 142.77 99.7549 142.371 99.7644C141.763 99.7788 141.296 100.054 140.969 100.591C140.644 101.128 140.492 101.868 140.511 102.809L140.572 102.808C140.709 102.57 140.88 102.366 141.084 102.196C141.29 102.024 141.522 101.89 141.779 101.795C142.038 101.697 142.313 101.645 142.601 101.638C143.082 101.627 143.519 101.734 143.913 101.959C144.31 102.182 144.629 102.496 144.871 102.9C145.112 103.305 145.24 103.771 145.252 104.3C145.265 104.829 145.156 105.311 144.926 105.746C144.699 106.18 144.372 106.528 143.947 106.789C143.521 107.048 143.019 107.181 142.442 107.19ZM142.413 106.137C142.731 106.13 143.014 106.045 143.261 105.882C143.508 105.72 143.701 105.505 143.841 105.237C143.98 104.969 144.046 104.672 144.038 104.345C144.031 104.027 143.952 103.739 143.803 103.48C143.657 103.222 143.458 103.019 143.206 102.871C142.956 102.723 142.674 102.653 142.358 102.66C142.118 102.666 141.897 102.717 141.694 102.814C141.494 102.91 141.319 103.041 141.169 103.207C141.019 103.372 140.902 103.561 140.818 103.774C140.736 103.984 140.698 104.205 140.704 104.437C140.711 104.747 140.789 105.033 140.939 105.294C141.091 105.555 141.294 105.763 141.549 105.919C141.806 106.072 142.094 106.145 142.413 106.137ZM147.07 106.966L150.518 99.7248L150.517 99.6641L146.332 99.7635L146.307 98.691L151.787 98.5608L151.813 99.6698L148.377 106.935L147.07 106.966ZM154.558 98.495L154.755 106.784L153.504 106.814L153.307 98.5247L154.558 98.495ZM163.678 102.425C163.699 103.31 163.555 104.075 163.246 104.719C162.937 105.361 162.505 105.86 161.949 106.216C161.396 106.569 160.762 106.755 160.047 106.772C159.329 106.789 158.685 106.634 158.113 106.307C157.543 105.978 157.089 105.499 156.75 104.87C156.411 104.241 156.231 103.485 156.21 102.603C156.189 101.718 156.333 100.954 156.642 100.312C156.951 99.6679 157.382 99.169 157.935 98.8157C158.491 98.4597 159.127 98.2731 159.845 98.2561C160.56 98.2391 161.202 98.3953 161.772 98.7246C162.344 99.0512 162.799 99.5291 163.138 100.158C163.477 100.785 163.657 101.54 163.678 102.425ZM162.439 102.455C162.423 101.78 162.3 101.215 162.071 100.759C161.844 100.3 161.539 99.9558 161.156 99.7274C160.775 99.4961 160.347 99.3862 159.872 99.3974C159.395 99.4088 158.971 99.539 158.602 99.788C158.232 100.034 157.944 100.392 157.736 100.861C157.531 101.328 157.437 101.898 157.453 102.573C157.469 103.248 157.59 103.814 157.817 104.273C158.047 104.729 158.352 105.073 158.733 105.304C159.113 105.533 159.543 105.642 160.02 105.63C160.495 105.619 160.917 105.49 161.287 105.244C161.659 104.995 161.947 104.637 162.152 104.17C162.359 103.701 162.455 103.129 162.439 102.455ZM165.01 104.921L164.985 103.909L168.433 98.1656L169.23 98.1466L169.266 99.636L168.76 99.648L166.294 103.764L166.296 103.829L171.205 103.712L171.23 104.773L165.01 104.921ZM168.978 106.446L168.932 104.52L168.929 104.058L168.789 98.1571L169.975 98.1289L170.172 106.418L168.978 106.446ZM175.418 106.407C174.91 106.419 174.452 106.332 174.043 106.148C173.636 105.96 173.309 105.698 173.06 105.361C172.812 105.024 172.675 104.636 172.648 104.196L173.862 104.168C173.9 104.523 174.065 104.812 174.357 105.035C174.648 105.257 174.993 105.364 175.393 105.354C175.711 105.347 175.991 105.267 176.233 105.116C176.478 104.961 176.668 104.753 176.802 104.491C176.939 104.228 177.003 103.931 176.995 103.599C176.987 103.262 176.907 102.963 176.755 102.702C176.603 102.441 176.397 102.238 176.137 102.093C175.88 101.948 175.587 101.878 175.258 101.883C175.007 101.889 174.755 101.938 174.504 102.03C174.252 102.123 174.05 102.241 173.897 102.385L172.747 102.242L173.114 98.0544L177.671 97.9462L177.696 99.0187L174.179 99.1022L173.971 101.428L174.02 101.426C174.178 101.266 174.389 101.13 174.654 101.019C174.921 100.907 175.209 100.847 175.516 100.84C176.021 100.828 176.473 100.938 176.873 101.168C177.275 101.399 177.594 101.72 177.831 102.13C178.07 102.537 178.195 103.009 178.205 103.546C178.22 104.083 178.11 104.565 177.875 104.992C177.642 105.418 177.312 105.758 176.886 106.011C176.463 106.262 175.974 106.393 175.418 106.407Z" fill="black"/>
<rect x="107.004" y="76.9489" width="22.8717" height="9.43583" rx="1.21791" transform="rotate(-1.36025 107.004 76.9489)" fill="#4787E1"/>
<path d="M111.185 84.1314C110.814 84.1402 110.527 84.0589 110.324 83.8874C110.121 83.7159 110.016 83.4577 110.008 83.1127L110 82.8034C109.996 82.6272 110.017 82.486 110.063 82.3799C110.11 82.27 110.162 82.175 110.22 82.0948C110.282 82.0071 110.332 81.9309 110.372 81.8661C110.415 81.8013 110.436 81.7258 110.434 81.6396C110.432 81.5646 110.412 81.5125 110.374 81.4834C110.34 81.4505 110.292 81.4347 110.232 81.4362C110.191 81.4371 110.146 81.4457 110.098 81.4619C110.053 81.4742 110.007 81.4922 109.958 81.5158L109.825 81.1138C109.903 81.0632 109.994 81.0273 110.098 81.0061C110.207 80.981 110.3 80.9675 110.379 80.9656C110.525 80.9622 110.644 80.9856 110.735 81.036C110.826 81.0826 110.891 81.1504 110.931 81.2395C110.974 81.3248 110.997 81.4274 111 81.5474C111.003 81.6786 110.983 81.7897 110.941 81.8808C110.902 81.9717 110.853 82.061 110.795 82.1487C110.737 82.2439 110.689 82.3332 110.649 82.4166C110.61 82.5001 110.592 82.6112 110.596 82.7499L110.603 83.0536C110.606 83.2111 110.634 83.3342 110.685 83.423C110.739 83.508 110.81 83.5682 110.897 83.6037C110.984 83.6354 111.076 83.6501 111.174 83.6478C111.35 83.6436 111.482 83.5973 111.57 83.5089C111.662 83.4167 111.705 83.2844 111.701 83.1119L111.651 80.9748L112.252 80.9605L112.304 83.1201C112.311 83.4351 112.219 83.6811 112.029 83.8582C111.841 84.0314 111.56 84.1225 111.185 84.1314ZM114.327 84.0568C113.907 84.0668 113.589 83.9674 113.374 83.7587C113.163 83.5461 113.052 83.2149 113.041 82.765C113.039 82.69 113.039 82.6056 113.041 82.5118C113.046 82.4179 113.053 82.3295 113.063 82.2468L114.294 82.2175L114.305 82.6506L113.641 82.6663L113.643 82.7676C113.648 82.9775 113.675 83.1438 113.723 83.2665C113.774 83.3891 113.848 83.4736 113.943 83.5201C114.041 83.5665 114.162 83.5881 114.304 83.5847C114.462 83.5809 114.596 83.5477 114.707 83.4851C114.818 83.4224 114.902 83.3117 114.958 83.1528C115.018 82.99 115.044 82.7624 115.037 82.47C115.031 82.2075 114.998 81.9945 114.938 81.8309C114.878 81.6635 114.779 81.5402 114.642 81.4609C114.509 81.3815 114.332 81.3444 114.111 81.3497C113.991 81.3525 113.873 81.3666 113.757 81.3919C113.645 81.4133 113.537 81.4459 113.433 81.4896C113.329 81.5296 113.229 81.5788 113.133 81.6374L113.12 81.0975C113.198 81.0544 113.292 81.0165 113.404 80.9838C113.516 80.9474 113.639 80.9182 113.773 80.8963C113.908 80.8706 114.046 80.856 114.189 80.8527C114.526 80.8446 114.802 80.9056 115.015 81.0356C115.228 81.1619 115.386 81.3457 115.489 81.5871C115.592 81.8247 115.648 82.1104 115.656 82.4441C115.664 82.7777 115.626 83.0638 115.541 83.3021C115.457 83.5404 115.315 83.7239 115.115 83.8524C114.92 83.9809 114.657 84.049 114.327 84.0568ZM116.969 83.9322L115.951 80.8727L116.558 80.8583L117.412 83.4152L117.469 83.4139C117.547 83.412 117.624 83.3896 117.698 83.3465C117.776 83.3034 117.84 83.2494 117.891 83.1844C117.989 83.0658 118.061 82.9178 118.105 82.7404C118.15 82.563 118.17 82.3881 118.166 82.2156C118.159 81.9232 118.09 81.696 117.959 81.5341C117.827 81.3721 117.649 81.2938 117.424 81.2992C117.379 81.3002 117.336 81.305 117.295 81.3135C117.254 81.3182 117.22 81.3265 117.194 81.3384L117.048 80.8692C117.13 80.8447 117.207 80.8279 117.278 80.8187C117.349 80.8095 117.411 80.8043 117.463 80.803C117.654 80.7985 117.824 80.8226 117.971 80.8754C118.122 80.9243 118.252 81 118.359 81.1025C118.493 81.2269 118.595 81.3839 118.663 81.5736C118.731 81.7633 118.768 81.9744 118.774 82.2068C118.781 82.503 118.74 82.7666 118.652 82.9975C118.567 83.2246 118.459 83.4073 118.327 83.5454C118.217 83.6568 118.082 83.7463 117.923 83.8139C117.763 83.8814 117.554 83.9183 117.295 83.9244L116.969 83.9322ZM120.282 83.9098C120.158 83.9127 120.045 83.8967 119.943 83.8616C119.845 83.8226 119.765 83.7589 119.702 83.6703C119.64 83.578 119.607 83.4531 119.604 83.2957L119.544 80.7874L120.146 80.7731L120.204 83.2083C120.206 83.2908 120.224 83.3503 120.258 83.387C120.297 83.4199 120.355 83.4354 120.434 83.4335C120.464 83.4328 120.498 83.4282 120.535 83.4199C120.572 83.4115 120.608 83.4012 120.641 83.3892L120.719 83.8094C120.648 83.8448 120.576 83.8691 120.501 83.8821C120.43 83.8988 120.357 83.908 120.282 83.9098ZM122.342 83.8609C122.027 83.8684 121.775 83.835 121.585 83.7607C121.396 83.6864 121.257 83.579 121.167 83.4386C121.081 83.2944 121.036 83.1266 121.031 82.9354C121.027 82.7629 121.048 82.6255 121.095 82.5231C121.145 82.4169 121.208 82.3385 121.286 82.2879C121.363 82.2372 121.443 82.2016 121.525 82.1809L121.525 82.1584C121.445 82.134 121.364 82.0966 121.28 82.046C121.2 81.9954 121.131 81.9258 121.073 81.8371C121.018 81.7446 120.989 81.6272 120.985 81.4847C120.982 81.3535 121.009 81.229 121.067 81.1114C121.128 80.9899 121.226 80.89 121.363 80.8117C121.5 80.7334 121.681 80.6916 121.906 80.6863C122.004 80.684 122.103 80.6891 122.205 80.7017C122.306 80.7143 122.386 80.7349 122.443 80.7636L122.352 81.2047C122.314 81.1943 122.263 81.1843 122.199 81.1745C122.139 81.1647 122.075 81.1606 122.008 81.1622C121.865 81.1656 121.759 81.2018 121.689 81.271C121.624 81.3401 121.592 81.429 121.594 81.5378C121.597 81.6577 121.629 81.7489 121.691 81.8112C121.752 81.8698 121.83 81.9092 121.924 81.9294C122.023 81.9496 122.122 81.9585 122.223 81.9561L122.336 81.9534L122.346 82.364L122.233 82.3667C122.027 82.3716 121.876 82.4127 121.78 82.49C121.684 82.5635 121.639 82.6865 121.643 82.859C121.645 82.9527 121.666 83.0422 121.705 83.1276C121.749 83.2091 121.819 83.2731 121.918 83.3195C122.017 83.3659 122.156 83.387 122.336 83.3827C122.512 83.3785 122.648 83.3509 122.745 83.2999C122.841 83.2488 122.909 83.1778 122.948 83.0868C122.991 82.9958 123.011 82.8884 123.008 82.7647L122.959 80.7063L123.561 80.692L123.609 82.7166C123.618 83.1066 123.52 83.3921 123.314 83.5733C123.108 83.7545 122.784 83.8504 122.342 83.8609ZM122.923 80.3076C122.818 80.3101 122.728 80.2916 122.652 80.2522C122.572 80.209 122.511 80.1467 122.468 80.0652L122.192 80.3081C121.975 80.3133 121.797 80.2631 121.659 80.1576C121.522 80.052 121.451 79.8962 121.446 79.69C121.442 79.5437 121.471 79.423 121.533 79.3278C121.59 79.2289 121.669 79.1557 121.77 79.1083C121.866 79.061 121.972 79.036 122.089 79.0332L123.433 79.0013L123.441 79.3612L122.193 79.3909C122.11 79.3928 122.041 79.4189 121.986 79.4689C121.928 79.5191 121.899 79.5967 121.902 79.7016C121.904 79.7766 121.926 79.838 121.968 79.8858C122.007 79.9336 122.069 79.9565 122.155 79.9545L122.447 79.6774L122.554 79.6749C122.571 79.7533 122.602 79.8201 122.649 79.8752C122.691 79.9305 122.752 79.9572 122.831 79.9553C122.898 79.9537 122.948 79.9338 122.981 79.8955C123.014 79.8534 123.03 79.7987 123.028 79.7312L123.026 79.6581L123.454 79.6479L123.456 79.7323C123.46 79.9235 123.415 80.0671 123.32 80.1632C123.224 80.2555 123.092 80.3036 122.923 80.3076ZM125.562 83.7844C125.341 83.7897 125.148 83.7549 124.985 83.6799C124.826 83.6012 124.703 83.4822 124.617 83.3229C124.53 83.1599 124.484 82.9528 124.478 82.7016L124.43 80.6714L125.032 80.6571L125.078 82.6255C125.084 82.8429 125.14 83.0066 125.248 83.1166C125.355 83.2229 125.508 83.2736 125.707 83.2689C125.951 83.2631 126.136 83.1762 126.264 83.0081C126.395 82.8399 126.457 82.6096 126.45 82.3172L126.41 80.6244L127.011 80.6101L127.085 83.692L126.607 83.7033L126.551 83.2433L126.517 83.2441C126.453 83.3956 126.34 83.5221 126.177 83.6235C126.018 83.7248 125.813 83.7785 125.562 83.7844Z" fill="#191C1F"/>
<rect x="134.402" y="76.2983" width="32.8717" height="9.43583" rx="1.21791" transform="rotate(-1.36025 134.402 76.2983)" fill="#C4ED4E"/>
<path d="M137.476 83.4454L137.417 80.9483C137.413 80.7796 137.442 80.6476 137.503 80.5524C137.565 80.4571 137.648 80.3914 137.752 80.3552C137.856 80.3152 137.972 80.2937 138.099 80.2906C138.159 80.2892 138.225 80.2952 138.297 80.3085C138.368 80.318 138.429 80.3353 138.478 80.3604L138.409 80.7897C138.375 80.7793 138.34 80.7726 138.302 80.7698C138.268 80.7668 138.24 80.7656 138.217 80.7661C138.131 80.7682 138.072 80.7902 138.039 80.8323C138.006 80.8743 137.991 80.9347 137.993 81.0134L138.011 81.7839C138.014 81.8927 138.014 82.0108 138.014 82.1384C138.017 82.2658 138.013 82.4197 138.002 82.6001L138.025 82.5995C138.096 82.4328 138.16 82.2943 138.217 82.1842C138.278 82.0702 138.334 81.9657 138.384 81.8707L138.649 81.3974L138.964 81.3899L139.245 81.8503C139.303 81.9464 139.354 82.0334 139.397 82.1111C139.444 82.1888 139.487 82.2628 139.526 82.3332C139.566 82.4035 139.603 82.4795 139.639 82.5612L139.667 82.5605C139.648 82.3809 139.635 82.2274 139.628 82.1C139.621 81.9726 139.616 81.8546 139.614 81.7459L139.58 80.3118L140.159 80.298L140.232 83.3799L139.681 83.393L138.832 82.012L138.81 82.0125L138.028 83.4323L137.476 83.4454ZM139.401 79.8433C139.24 79.8472 139.112 79.8277 139.017 79.7849C138.918 79.7385 138.847 79.6802 138.804 79.6099C138.758 79.536 138.733 79.4578 138.731 79.3753C138.73 79.3153 138.738 79.2513 138.755 79.1834C138.768 79.1156 138.789 79.0569 138.818 79.0075L139.298 79.0692C139.291 79.0882 139.284 79.1146 139.277 79.1485C139.271 79.1824 139.268 79.2144 139.268 79.2444C139.27 79.2931 139.286 79.334 139.316 79.367C139.347 79.4001 139.4 79.4157 139.475 79.4139L140.836 79.3816L140.846 79.809L139.401 79.8433ZM141.122 83.3588L141.097 82.3296C141.092 82.0934 141.138 81.9179 141.237 81.803C141.335 81.6881 141.467 81.6062 141.631 81.5573L141.636 81.5347L141.017 81.3186L141.013 81.1443C141.009 80.9831 141.056 80.83 141.154 80.6852C141.256 80.5402 141.403 80.4223 141.596 80.3314C141.789 80.2405 142.024 80.1918 142.301 80.1852C142.545 80.1794 142.767 80.2136 142.968 80.2876C143.168 80.3578 143.329 80.4722 143.449 80.6307C143.569 80.7891 143.632 80.9977 143.638 81.2564L143.686 83.2979L143.085 83.3122L143.037 81.3213C143.032 81.0889 142.96 80.9236 142.823 80.8256C142.686 80.7238 142.512 80.6754 142.302 80.6804C142.088 80.6855 141.922 80.7344 141.805 80.8273C141.687 80.9164 141.627 81.0284 141.627 81.1635L142.213 81.4309L142.169 81.7302C142.031 81.7372 141.915 81.7869 141.824 81.8791C141.736 81.9712 141.694 82.111 141.699 82.2985L141.724 83.3445L141.122 83.3588ZM145.315 83.3155C145.192 83.3184 145.079 83.3023 144.977 83.2673C144.878 83.2283 144.798 83.1646 144.736 83.076C144.674 82.9837 144.641 82.8588 144.637 82.7014L144.577 80.1931L145.179 80.1788L145.237 82.614C145.239 82.6964 145.257 82.756 145.292 82.7927C145.33 82.8256 145.389 82.8411 145.467 82.8392C145.497 82.8385 145.531 82.8339 145.568 82.8256C145.606 82.8172 145.641 82.8069 145.674 82.7949L145.752 83.2151C145.681 83.2505 145.609 83.2748 145.534 83.2878C145.463 83.3045 145.39 83.3137 145.315 83.3155ZM146.896 83.278C146.772 83.2809 146.659 83.2648 146.557 83.2297C146.458 83.1908 146.378 83.1271 146.316 83.0385C146.254 82.9462 146.221 82.8213 146.217 82.6638L146.158 80.1556L146.759 80.1413L146.817 82.5764C146.819 82.6589 146.837 82.7185 146.872 82.7552C146.91 82.7881 146.969 82.8035 147.048 82.8017C147.078 82.801 147.111 82.7964 147.149 82.788C147.186 82.7796 147.221 82.7694 147.255 82.7574L147.332 83.1776C147.262 83.213 147.189 83.2372 147.115 83.2503C147.044 83.2669 146.971 83.2762 146.896 83.278ZM149.628 83.1568L149.579 81.121C149.574 80.896 149.516 80.7379 149.405 80.6468C149.298 80.5518 149.124 80.5072 148.884 80.5129C148.693 80.5174 148.51 80.548 148.335 80.6047C148.164 80.6613 148.004 80.7345 147.856 80.8242L147.843 80.29C147.951 80.2312 148.098 80.1751 148.284 80.122C148.474 80.0649 148.691 80.0335 148.935 80.0277C149.129 80.0231 149.302 80.0415 149.454 80.0829C149.604 80.1206 149.732 80.1814 149.835 80.2652C149.942 80.3489 150.023 80.4595 150.079 80.597C150.139 80.7344 150.171 80.9006 150.175 81.0956L150.224 83.1427L149.628 83.1568ZM148.673 83.2358C148.347 83.2435 148.094 83.1745 147.914 83.0287C147.738 82.8791 147.647 82.6618 147.64 82.3768C147.632 82.0694 147.737 81.8268 147.955 81.6491C148.175 81.4713 148.535 81.3615 149.033 81.3196L149.695 81.2589L149.706 81.7313L149.117 81.7903C148.784 81.8245 148.553 81.8862 148.424 81.9756C148.298 82.0648 148.237 82.1882 148.241 82.3457C148.245 82.4994 148.296 82.6107 148.395 82.6796C148.495 82.7486 148.628 82.781 148.797 82.777C148.857 82.7756 148.911 82.7706 148.96 82.7619C149.012 82.7494 149.061 82.737 149.105 82.7247L149.189 83.1447C149.118 83.1727 149.038 83.1933 148.948 83.2067C148.862 83.2238 148.771 83.2334 148.673 83.2358ZM151.49 81.2106C151.332 81.2144 151.204 81.193 151.106 81.1466C151.007 81.1002 150.934 81.04 150.887 80.9661C150.844 80.8883 150.822 80.8063 150.82 80.7201C150.818 80.6601 150.826 80.5999 150.844 80.5395C150.861 80.4753 150.882 80.4185 150.907 80.3692L151.392 80.4252C151.385 80.4478 151.377 80.4762 151.366 80.5102C151.359 80.5404 151.356 80.5723 151.357 80.6061C151.358 80.6548 151.372 80.6957 151.4 80.7289C151.43 80.7581 151.481 80.7719 151.552 80.7702L152.306 80.7523L152.316 81.191L151.49 81.2106ZM151.527 82.7853C151.37 82.7891 151.242 82.7677 151.143 82.7213C151.044 82.6749 150.972 82.6147 150.925 82.5408C150.882 82.463 150.859 82.381 150.857 82.2948C150.856 82.2348 150.864 82.1746 150.881 82.1142C150.898 82.05 150.919 81.9932 150.944 81.9439L151.43 81.9999C151.423 82.0225 151.414 82.0509 151.404 82.0849C151.397 82.1151 151.394 82.147 151.395 82.1808C151.396 82.2295 151.41 82.2704 151.437 82.3036C151.468 82.3328 151.519 82.3466 151.59 82.3449L152.343 82.327L152.354 82.7657L151.527 82.7853ZM153.058 83.0754L152.998 80.5784C152.994 80.4096 153.023 80.2777 153.085 80.1824C153.146 80.0872 153.229 80.0214 153.333 79.9852C153.437 79.9452 153.553 79.9237 153.68 79.9207C153.74 79.9192 153.806 79.9252 153.878 79.9385C153.949 79.948 154.01 79.9654 154.059 79.9905L153.99 80.4197C153.956 80.4093 153.921 80.4026 153.883 80.3998C153.849 80.3968 153.821 80.3956 153.799 80.3962C153.712 80.3982 153.653 80.4203 153.62 80.4623C153.587 80.5043 153.572 80.5647 153.574 80.6435L153.592 81.4139C153.595 81.5227 153.596 81.6408 153.595 81.7684C153.598 81.8959 153.594 82.0498 153.583 82.2301L153.606 82.2295C153.677 82.0628 153.741 81.9243 153.799 81.8142C153.86 81.7002 153.915 81.5957 153.966 81.5007L154.23 81.0274L154.545 81.0199L154.826 81.4803C154.885 81.5765 154.935 81.6634 154.978 81.7412C155.025 81.8188 155.068 81.8928 155.108 81.9632C155.147 82.0335 155.184 82.1095 155.22 82.1912L155.248 82.1906C155.229 82.0109 155.216 81.8574 155.209 81.7301C155.202 81.6027 155.197 81.4846 155.195 81.3759L155.161 79.9418L155.74 79.928L155.813 83.0099L155.262 83.023L154.413 81.642L154.391 81.6426L153.609 83.0623L153.058 83.0754ZM158.52 82.9457L158.471 80.9098C158.466 80.6849 158.408 80.5268 158.297 80.4357C158.189 80.3407 158.016 80.296 157.776 80.3017C157.585 80.3063 157.402 80.3369 157.227 80.3935C157.055 80.4501 156.896 80.5233 156.748 80.6131L156.735 80.0788C156.843 80.02 156.989 79.964 157.176 79.9108C157.366 79.8538 157.583 79.8224 157.826 79.8166C158.021 79.812 158.194 79.8304 158.345 79.8718C158.496 79.9095 158.623 79.9702 158.727 80.0541C158.834 80.1378 158.915 80.2484 158.971 80.3859C159.03 80.5233 159.062 80.6895 159.067 80.8844L159.116 82.9315L158.52 82.9457ZM157.565 83.0246C157.239 83.0324 156.986 82.9633 156.806 82.8176C156.63 82.6679 156.538 82.4506 156.532 82.1657C156.524 81.8583 156.629 81.6157 156.846 81.438C157.067 81.2602 157.427 81.1503 157.924 81.1085L158.587 81.0477L158.598 81.5202L158.009 81.5792C157.676 81.6133 157.445 81.6751 157.315 81.7644C157.19 81.8537 157.129 81.9771 157.133 82.1345C157.137 82.2883 157.188 82.3996 157.287 82.4685C157.386 82.5374 157.52 82.5699 157.689 82.5659C157.749 82.5645 157.803 82.5594 157.852 82.5508C157.904 82.5383 157.952 82.5259 157.997 82.5135L158.08 82.9336C158.01 82.9615 157.93 82.9822 157.84 82.9956C157.754 83.0126 157.662 83.0223 157.565 83.0246ZM160.102 80.3872L160.08 79.4367C160.077 79.2942 160.087 79.1796 160.111 79.0927C160.135 79.0021 160.169 78.9281 160.213 78.8708C160.256 78.8135 160.302 78.7656 160.35 78.7269L160.344 78.7045L159.399 78.727L159.523 78.2682L161.171 78.2291L161.182 78.6846C161.043 78.6879 160.922 78.7358 160.819 78.8283C160.72 78.9207 160.674 79.0869 160.679 79.3268L160.704 80.3729L160.102 80.3872ZM160.822 82.9473C160.702 82.9501 160.591 82.934 160.488 82.8989C160.39 82.86 160.31 82.7963 160.248 82.7077C160.185 82.6154 160.152 82.4905 160.149 82.333L160.089 79.8248L160.691 79.8105L160.749 82.2456C160.751 82.3281 160.769 82.3877 160.804 82.4244C160.842 82.4572 160.899 82.4728 160.974 82.471C161.007 82.4702 161.043 82.4656 161.08 82.4572C161.117 82.4488 161.151 82.4387 161.181 82.4267L161.264 82.8468C161.193 82.8822 161.121 82.9064 161.046 82.9195C160.971 82.9362 160.897 82.9455 160.822 82.9473ZM163.355 82.8871C163.107 82.893 162.896 82.8493 162.721 82.7559C162.55 82.6624 162.431 82.5321 162.363 82.3649L162.329 82.3657L162.296 82.856L161.818 82.8674L161.745 79.7854L162.346 79.7712L162.387 81.464C162.391 81.6589 162.425 81.8251 162.489 81.9624C162.552 82.0997 162.642 82.2044 162.76 82.2766C162.878 82.3489 163.02 82.383 163.185 82.3791C163.387 82.3743 163.538 82.3163 163.637 82.2052C163.735 82.0903 163.782 81.9241 163.777 81.7067L163.73 79.7383L164.332 79.724L164.38 81.7711C164.386 82.0148 164.35 82.2183 164.271 82.3815C164.192 82.5446 164.075 82.6693 163.92 82.7556C163.764 82.838 163.576 82.8819 163.355 82.8871ZM162.722 79.2952L162.716 79.0365C162.783 79.0199 162.854 78.9976 162.928 78.9695C163.003 78.9378 163.065 78.8988 163.117 78.8525C163.164 78.8026 163.187 78.7439 163.186 78.6764C163.185 78.6315 163.171 78.5943 163.144 78.5649C163.113 78.5319 163.07 78.516 163.013 78.5174C162.98 78.5182 162.944 78.5265 162.907 78.5424C162.87 78.5545 162.836 78.5666 162.807 78.5785L162.686 78.255C162.76 78.1933 162.845 78.1518 162.942 78.1308C163.039 78.106 163.119 78.0928 163.183 78.0913C163.337 78.0876 163.46 78.126 163.552 78.2063C163.64 78.2868 163.686 78.3945 163.689 78.5295C163.691 78.6269 163.669 78.7137 163.622 78.7899C163.571 78.8661 163.507 78.9277 163.429 78.9745L163.381 78.8406L164.483 78.8145L164.494 79.2531L162.722 79.2952Z" fill="#191C1F"/>
<path d="M324.246 77.4286L320.416 73.7759C320.308 73.673 320.245 73.5314 320.242 73.3823C320.238 73.2332 320.294 73.0888 320.397 72.9809C320.5 72.8729 320.642 72.8103 320.791 72.8068C320.94 72.8032 321.084 72.8591 321.192 72.962L324.615 76.227L327.88 72.8041C327.931 72.7507 327.992 72.7078 328.06 72.6779C328.127 72.648 328.2 72.6318 328.274 72.63C328.348 72.6283 328.421 72.6411 328.49 72.6677C328.559 72.6943 328.622 72.7343 328.675 72.7852C328.729 72.8362 328.772 72.8972 328.801 72.9647C328.831 73.0323 328.848 73.105 328.849 73.1789C328.851 73.2527 328.838 73.3261 328.812 73.395C328.785 73.4639 328.745 73.5269 328.694 73.5803L325.041 77.4106C324.99 77.4641 324.929 77.507 324.862 77.5369C324.794 77.5668 324.722 77.583 324.648 77.5847C324.574 77.5863 324.5 77.5734 324.431 77.5466C324.363 77.5198 324.3 77.4797 324.246 77.4286Z" fill="#2E3134"/>
<rect x="108.916" y="117.946" width="158.443" height="6.95605" rx="3.47803" transform="rotate(-1.36025 108.916 117.946)" fill="#EDEEF0"/>
<rect x="109.246" y="131.854" width="158.443" height="6.95605" rx="3.47803" transform="rotate(-1.36025 109.246 131.854)" fill="#EDEEF0"/>
<rect width="262.498" height="97.7302" transform="translate(102.879 49.4944)" fill="white"/>
<path d="M120.537 94.9113L121.959 86.2469H122.974L121.552 94.9113H120.537ZM116.615 92.5929L116.78 91.5775H123.346L123.181 92.5929H116.615ZM117.491 94.9113L118.912 86.2469H119.928L118.506 94.9113H117.491ZM117.119 89.5806L117.284 88.5653H123.85L123.685 89.5806H117.119ZM126.282 86.2469V94.9113H124.975V86.2469H126.282ZM130.991 94.9113H128.186V86.2469H131.08C131.929 86.2469 132.658 86.4203 133.267 86.7672C133.876 87.1113 134.343 87.6063 134.667 88.2522C134.995 88.8953 135.158 89.6667 135.158 90.5664C135.158 91.4689 134.993 92.2445 134.663 92.8932C134.336 93.5419 133.862 94.0412 133.242 94.3909C132.621 94.7378 131.871 94.9113 130.991 94.9113ZM129.493 93.769H130.919C131.579 93.769 132.128 93.6449 132.565 93.3967C133.002 93.1457 133.329 92.7832 133.546 92.3094C133.763 91.8327 133.872 91.2517 133.872 90.5664C133.872 89.8866 133.763 89.3099 133.546 88.836C133.332 88.3622 133.012 88.0026 132.586 87.7572C132.16 87.5118 131.631 87.3892 130.999 87.3892H129.493V93.769ZM139.953 86.2469V94.9113H138.641V87.5584H138.59L136.517 88.9122V87.6599L138.679 86.2469H139.953ZM145.156 95.0297C144.626 95.0297 144.149 94.9282 143.726 94.7251C143.306 94.5192 142.97 94.2372 142.719 93.879C142.468 93.5208 142.334 93.1118 142.317 92.6521H143.587C143.618 93.0244 143.783 93.3304 144.082 93.5701C144.381 93.8099 144.739 93.9297 145.156 93.9297C145.489 93.9297 145.784 93.8536 146.04 93.7013C146.3 93.5462 146.503 93.3332 146.65 93.0625C146.799 92.7917 146.874 92.4829 146.874 92.1359C146.874 91.7834 146.798 91.4689 146.645 91.1925C146.493 90.9161 146.283 90.6989 146.015 90.541C145.75 90.383 145.445 90.3027 145.101 90.2998C144.839 90.2998 144.575 90.345 144.31 90.4352C144.045 90.5255 143.831 90.6439 143.667 90.7906L142.47 90.6129L142.956 86.2469H147.72V87.368H144.044L143.769 89.7922H143.819C143.989 89.6286 144.213 89.4918 144.492 89.3818C144.774 89.2718 145.076 89.2168 145.397 89.2168C145.925 89.2168 146.394 89.3423 146.806 89.5933C147.221 89.8443 147.547 90.187 147.783 90.6214C148.023 91.0529 148.142 91.5493 148.139 92.1106C148.142 92.6718 148.015 93.1725 147.758 93.6124C147.504 94.0524 147.152 94.3993 146.7 94.6532C146.252 94.9042 145.737 95.0297 145.156 95.0297ZM152.709 95.0297C152.323 95.0241 151.942 94.9536 151.567 94.8182C151.194 94.6828 150.856 94.4572 150.551 94.1413C150.247 93.8254 150.003 93.4009 149.819 92.8678C149.639 92.3348 149.549 91.6692 149.549 90.871C149.549 90.1151 149.623 89.4438 149.773 88.8572C149.925 88.2705 150.144 87.7756 150.429 87.3722C150.714 86.9661 151.058 86.6573 151.461 86.4457C151.864 86.2342 152.317 86.1284 152.819 86.1284C153.335 86.1284 153.793 86.23 154.194 86.433C154.594 86.6361 154.919 86.9167 155.167 87.2749C155.418 87.6331 155.577 88.0407 155.645 88.4976H154.355C154.267 88.1366 154.094 87.8418 153.834 87.6134C153.575 87.3849 153.236 87.2707 152.819 87.2707C152.184 87.2707 151.689 87.5471 151.334 88.0999C150.981 88.6527 150.804 89.4213 150.801 90.4056H150.864C151.014 90.1602 151.197 89.9515 151.414 89.7795C151.634 89.6046 151.88 89.4706 152.151 89.3776C152.424 89.2817 152.712 89.2337 153.014 89.2337C153.516 89.2337 153.97 89.3564 154.376 89.6018C154.785 89.8443 155.111 90.18 155.353 90.6087C155.596 91.0374 155.717 91.5281 155.717 92.0809C155.717 92.6338 155.591 93.1344 155.34 93.5828C155.092 94.0313 154.743 94.3867 154.291 94.649C153.84 94.9084 153.313 95.0354 152.709 95.0297ZM152.705 93.9297C153.038 93.9297 153.335 93.848 153.597 93.6844C153.86 93.5208 154.067 93.3008 154.219 93.0244C154.372 92.748 154.448 92.4391 154.448 92.0979C154.448 91.7651 154.373 91.4619 154.224 91.1883C154.077 90.9147 153.874 90.6975 153.614 90.5368C153.358 90.376 153.064 90.2956 152.734 90.2956C152.483 90.2956 152.251 90.3436 152.036 90.4395C151.825 90.5353 151.639 90.6679 151.478 90.8371C151.317 91.0064 151.19 91.201 151.097 91.421C151.007 91.6381 150.962 91.868 150.962 92.1106C150.962 92.4349 151.036 92.7353 151.186 93.0117C151.338 93.2881 151.546 93.5109 151.808 93.6801C152.073 93.8465 152.372 93.9297 152.705 93.9297ZM157.55 94.9113L161.332 87.4315V87.368H156.958V86.2469H162.686V87.4061L158.916 94.9113H157.55ZM165.583 86.2469V94.9113H164.276V86.2469H165.583ZM175.013 90.5791C175.013 91.5042 174.844 92.2995 174.505 92.9652C174.167 93.628 173.703 94.1385 173.113 94.4967C172.527 94.852 171.86 95.0297 171.112 95.0297C170.362 95.0297 169.692 94.852 169.103 94.4967C168.516 94.1385 168.054 93.6265 167.715 92.9609C167.377 92.2953 167.207 91.5013 167.207 90.5791C167.207 89.654 167.377 88.86 167.715 88.1972C168.054 87.5316 168.516 87.0211 169.103 86.6657C169.692 86.3075 170.362 86.1284 171.112 86.1284C171.86 86.1284 172.527 86.3075 173.113 86.6657C173.703 87.0211 174.167 87.5316 174.505 88.1972C174.844 88.86 175.013 89.654 175.013 90.5791ZM173.718 90.5791C173.718 89.874 173.604 89.2803 173.376 88.798C173.15 88.3128 172.84 87.9462 172.445 87.698C172.053 87.447 171.609 87.3215 171.112 87.3215C170.613 87.3215 170.167 87.447 169.775 87.698C169.383 87.9462 169.073 88.3128 168.845 88.798C168.619 89.2803 168.506 89.874 168.506 90.5791C168.506 91.2842 168.619 91.8793 168.845 92.3644C169.073 92.8467 169.383 93.2134 169.775 93.4644C170.167 93.7126 170.613 93.8367 171.112 93.8367C171.609 93.8367 172.053 93.7126 172.445 93.4644C172.84 93.2134 173.15 92.8467 173.376 92.3644C173.604 91.8793 173.718 91.2842 173.718 90.5791ZM176.342 93.219V92.1613L180.087 86.2469H180.92V87.8038H180.391L177.713 92.0429V92.1106H182.845V93.219H176.342ZM180.45 94.9113V92.8975L180.459 92.4152V86.2469H181.698V94.9113H180.45ZM187.179 95.0297C186.649 95.0297 186.172 94.9282 185.749 94.7251C185.329 94.5192 184.993 94.2372 184.742 93.879C184.491 93.5208 184.357 93.1118 184.341 92.6521H185.61C185.641 93.0244 185.806 93.3304 186.105 93.5701C186.404 93.8099 186.762 93.9297 187.179 93.9297C187.512 93.9297 187.807 93.8536 188.064 93.7013C188.323 93.5462 188.526 93.3332 188.673 93.0625C188.822 92.7917 188.897 92.4829 188.897 92.1359C188.897 91.7834 188.821 91.4689 188.668 91.1925C188.516 90.9161 188.306 90.6989 188.038 90.541C187.773 90.383 187.468 90.3027 187.124 90.2998C186.862 90.2998 186.598 90.345 186.333 90.4352C186.068 90.5255 185.854 90.6439 185.69 90.7906L184.493 90.6129L184.979 86.2469H189.743V87.368H186.067L185.792 89.7922H185.842C186.012 89.6286 186.236 89.4918 186.515 89.3818C186.797 89.2718 187.099 89.2168 187.42 89.2168C187.948 89.2168 188.417 89.3423 188.829 89.5933C189.244 89.8443 189.57 90.187 189.807 90.6214C190.046 91.0529 190.165 91.5493 190.162 92.1106C190.165 92.6718 190.038 93.1725 189.781 93.6124C189.527 94.0524 189.175 94.3993 188.723 94.6532C188.275 94.9042 187.76 95.0297 187.179 95.0297Z" fill="black"/>
<rect x="116.438" y="63.0526" width="24.091" height="9.54548" rx="1.27274" fill="#4787E1"/>
<path d="M120.628 70.39C120.24 70.39 119.943 70.2979 119.735 70.1137C119.527 69.9295 119.423 69.6571 119.423 69.2965V68.9732C119.423 68.789 119.449 68.642 119.5 68.5323C119.551 68.4186 119.608 68.3207 119.67 68.2384C119.737 68.1482 119.792 68.0698 119.835 68.0032C119.882 67.9366 119.905 67.8582 119.905 67.7681C119.905 67.6897 119.886 67.6348 119.847 67.6035C119.811 67.5682 119.762 67.5505 119.7 67.5505C119.657 67.5505 119.609 67.5584 119.559 67.5741C119.512 67.5858 119.463 67.6035 119.412 67.627L119.282 67.2037C119.365 67.1527 119.461 67.1175 119.57 67.0979C119.684 67.0744 119.782 67.0626 119.864 67.0626C120.017 67.0626 120.141 67.09 120.235 67.1449C120.329 67.1959 120.395 67.2684 120.434 67.3624C120.478 67.4526 120.499 67.5603 120.499 67.6858C120.499 67.8229 120.476 67.9385 120.429 68.0326C120.385 68.1267 120.333 68.2188 120.27 68.3089C120.207 68.4069 120.154 68.499 120.111 68.5852C120.068 68.6714 120.046 68.787 120.046 68.9321V69.2495C120.046 69.4141 120.072 69.5434 120.123 69.6375C120.178 69.7276 120.25 69.7923 120.34 69.8315C120.431 69.8668 120.527 69.8844 120.628 69.8844C120.813 69.8844 120.952 69.8393 121.046 69.7492C121.144 69.6551 121.193 69.518 121.193 69.3377V67.1038H121.822V69.3612C121.822 69.6904 121.72 69.9452 121.516 70.1254C121.316 70.3018 121.02 70.39 120.628 70.39ZM123.912 70.39C123.473 70.39 123.144 70.2783 122.925 70.0549C122.709 69.8276 122.601 69.4788 122.601 69.0085C122.601 68.9301 122.603 68.8419 122.607 68.7439C122.615 68.646 122.625 68.5539 122.636 68.4676H123.924V68.9203H123.23V69.0261C123.23 69.2456 123.254 69.42 123.301 69.5493C123.352 69.6787 123.426 69.7688 123.524 69.8197C123.626 69.8707 123.751 69.8962 123.9 69.8962C124.065 69.8962 124.206 69.8648 124.324 69.8021C124.441 69.7394 124.531 69.6257 124.594 69.4611C124.661 69.2926 124.694 69.0555 124.694 68.7498C124.694 68.4755 124.665 68.2521 124.606 68.0796C124.547 67.9033 124.447 67.772 124.306 67.6858C124.169 67.5995 123.985 67.5564 123.753 67.5564C123.628 67.5564 123.505 67.5682 123.383 67.5917C123.266 67.6113 123.152 67.6426 123.042 67.6858C122.932 67.7249 122.827 67.7739 122.725 67.8327V67.2684C122.807 67.2253 122.907 67.188 123.024 67.1567C123.142 67.1214 123.271 67.094 123.412 67.0744C123.554 67.0508 123.699 67.0391 123.848 67.0391C124.2 67.0391 124.486 67.1096 124.706 67.2507C124.925 67.3879 125.086 67.5839 125.188 67.8386C125.29 68.0894 125.341 68.3892 125.341 68.7381C125.341 69.0869 125.294 69.3847 125.2 69.6316C125.106 69.8785 124.953 70.0667 124.741 70.196C124.533 70.3253 124.257 70.39 123.912 70.39ZM126.676 70.3253L125.688 67.1038H126.323L127.152 69.7962H127.211C127.293 69.7962 127.373 69.7747 127.452 69.7316C127.534 69.6885 127.603 69.6336 127.657 69.567C127.763 69.4455 127.842 69.2926 127.893 69.1084C127.943 68.9242 127.969 68.742 127.969 68.5617C127.969 68.256 127.902 68.0169 127.769 67.8445C127.636 67.672 127.452 67.5858 127.216 67.5858C127.169 67.5858 127.124 67.5897 127.081 67.5976C127.038 67.6015 127.003 67.6093 126.975 67.6211L126.834 67.1273C126.921 67.1038 127.001 67.0881 127.075 67.0802C127.15 67.0724 127.215 67.0685 127.269 67.0685C127.469 67.0685 127.646 67.0979 127.798 67.1567C127.955 67.2115 128.089 67.2938 128.198 67.4036C128.335 67.5368 128.437 67.7034 128.504 67.9033C128.571 68.1031 128.604 68.3246 128.604 68.5676C128.604 68.8772 128.555 69.1515 128.457 69.3906C128.363 69.6257 128.245 69.8139 128.104 69.955C127.987 70.0686 127.844 70.1588 127.675 70.2254C127.507 70.292 127.287 70.3253 127.017 70.3253H126.676ZM130.138 70.3841C130.008 70.3841 129.891 70.3645 129.785 70.3253C129.683 70.2822 129.601 70.2136 129.538 70.1196C129.475 70.0216 129.444 69.8903 129.444 69.7257V67.1038H130.073V69.6493C130.073 69.7355 130.09 69.7982 130.126 69.8374C130.165 69.8727 130.226 69.8903 130.308 69.8903C130.339 69.8903 130.375 69.8864 130.414 69.8785C130.453 69.8707 130.49 69.8609 130.525 69.8491L130.596 70.29C130.522 70.3253 130.445 70.3488 130.367 70.3606C130.292 70.3763 130.216 70.3841 130.138 70.3841ZM132.29 70.3841C131.961 70.3841 131.699 70.343 131.503 70.2607C131.307 70.1783 131.164 70.0627 131.074 69.9138C130.987 69.761 130.944 69.5846 130.944 69.3847C130.944 69.2044 130.97 69.0614 131.021 68.9556C131.076 68.8458 131.144 68.7655 131.226 68.7145C131.309 68.6636 131.393 68.6283 131.479 68.6087V68.5852C131.397 68.5578 131.313 68.5166 131.226 68.4618C131.144 68.4069 131.074 68.3324 131.015 68.2384C130.96 68.1404 130.932 68.0169 130.932 67.868C130.932 67.7308 130.964 67.6015 131.027 67.48C131.093 67.3546 131.199 67.2527 131.344 67.1743C131.489 67.0959 131.679 67.0567 131.914 67.0567C132.016 67.0567 132.12 67.0646 132.226 67.0802C132.332 67.0959 132.414 67.1194 132.473 67.1508L132.367 67.6093C132.328 67.5976 132.275 67.5858 132.208 67.5741C132.145 67.5623 132.079 67.5564 132.008 67.5564C131.859 67.5564 131.748 67.5917 131.673 67.6622C131.603 67.7328 131.567 67.8249 131.567 67.9385C131.567 68.064 131.599 68.16 131.661 68.2266C131.724 68.2893 131.804 68.3324 131.902 68.3559C132.004 68.3794 132.108 68.3912 132.214 68.3912H132.332V68.8204H132.214C131.998 68.8204 131.84 68.8595 131.738 68.9379C131.636 69.0124 131.585 69.1398 131.585 69.32C131.585 69.418 131.605 69.5121 131.644 69.6022C131.687 69.6885 131.759 69.757 131.861 69.808C131.963 69.8589 132.108 69.8844 132.296 69.8844C132.481 69.8844 132.624 69.8589 132.725 69.808C132.827 69.757 132.9 69.6845 132.943 69.5905C132.99 69.4964 133.014 69.3847 133.014 69.2554V67.1038H133.643V69.2201C133.643 69.6277 133.533 69.9236 133.313 70.1078C133.094 70.292 132.753 70.3841 132.29 70.3841ZM132.986 66.6864C132.877 66.6864 132.783 66.6648 132.704 66.6217C132.622 66.5747 132.559 66.508 132.516 66.4218L132.222 66.6687C131.995 66.6687 131.811 66.6119 131.67 66.4982C131.528 66.3846 131.458 66.22 131.458 66.0044C131.458 65.8516 131.491 65.7262 131.558 65.6282C131.621 65.5263 131.705 65.4518 131.811 65.4048C131.913 65.3578 132.024 65.3343 132.146 65.3343H133.551V65.7105H132.246C132.159 65.7105 132.087 65.736 132.028 65.7869C131.965 65.8379 131.934 65.9182 131.934 66.0279C131.934 66.1063 131.956 66.171 131.999 66.2219C132.038 66.2729 132.103 66.2984 132.193 66.2984L132.504 66.0162H132.616C132.632 66.0985 132.663 66.169 132.71 66.2278C132.753 66.2866 132.816 66.316 132.898 66.316C132.969 66.316 133.022 66.2964 133.057 66.2572C133.092 66.2141 133.11 66.1573 133.11 66.0867V66.0103H133.557V66.0985C133.557 66.2984 133.506 66.4473 133.404 66.5453C133.302 66.6393 133.163 66.6864 132.986 66.6864ZM135.656 70.3841C135.425 70.3841 135.225 70.343 135.057 70.2607C134.892 70.1744 134.767 70.0471 134.681 69.8785C134.594 69.7061 134.551 69.4886 134.551 69.226V67.1038H135.18V69.1613C135.18 69.3886 135.235 69.5611 135.345 69.6787C135.455 69.7923 135.613 69.8491 135.821 69.8491C136.076 69.8491 136.272 69.7629 136.409 69.5905C136.55 69.418 136.621 69.179 136.621 68.8733V67.1038H137.25V70.3253H136.75L136.703 69.8433H136.668C136.597 70 136.476 70.1294 136.303 70.2313C136.135 70.3332 135.919 70.3841 135.656 70.3841Z" fill="#191C1F"/>
<rect x="145.076" y="63.0526" width="35.091" height="9.54548" rx="1.27274" fill="#C4ED4E"/>
<path d="M148.109 70.3253V67.7151C148.109 67.5388 148.142 67.4016 148.209 67.3036C148.276 67.2057 148.364 67.139 148.474 67.1038C148.583 67.0646 148.705 67.045 148.838 67.045C148.901 67.045 148.969 67.0528 149.044 67.0685C149.118 67.0802 149.181 67.0998 149.232 67.1273L149.15 67.5741C149.114 67.5623 149.077 67.5545 149.038 67.5505C149.003 67.5466 148.973 67.5447 148.95 67.5447C148.86 67.5447 148.797 67.5662 148.762 67.6093C148.726 67.6524 148.709 67.7151 148.709 67.7975V68.6028C148.709 68.7165 148.707 68.84 148.703 68.9732C148.703 69.1065 148.695 69.2671 148.679 69.4553H148.703C148.781 69.2828 148.852 69.1398 148.914 69.0261C148.981 68.9085 149.042 68.8008 149.097 68.7028L149.385 68.2148H149.714L149.996 68.7028C150.055 68.8047 150.106 68.8968 150.149 68.9791C150.196 69.0614 150.239 69.1398 150.278 69.2142C150.317 69.2887 150.355 69.369 150.39 69.4553H150.419C150.404 69.2671 150.394 69.1065 150.39 68.9732C150.386 68.84 150.384 68.7165 150.384 68.6028V67.1038H150.99V70.3253H150.414L149.561 68.8615H149.538L148.685 70.3253H148.109ZM150.209 66.6099C150.04 66.6099 149.907 66.5864 149.809 66.5394C149.707 66.4884 149.635 66.4257 149.592 66.3513C149.545 66.2729 149.521 66.1906 149.521 66.1044C149.521 66.0417 149.531 65.975 149.55 65.9045C149.566 65.8339 149.59 65.7732 149.621 65.7223L150.121 65.7987C150.113 65.8183 150.105 65.8457 150.097 65.881C150.089 65.9162 150.085 65.9496 150.085 65.9809C150.085 66.0319 150.101 66.075 150.132 66.1102C150.164 66.1455 150.219 66.1632 150.297 66.1632H151.72V66.6099H150.209ZM151.92 70.3253V69.2495C151.92 69.0026 151.973 68.8204 152.078 68.7028C152.184 68.5852 152.323 68.5029 152.496 68.4559L152.502 68.4324L151.861 68.1913V68.0091C151.861 67.8406 151.914 67.6818 152.02 67.5329C152.129 67.384 152.286 67.2644 152.49 67.1743C152.694 67.0842 152.941 67.0391 153.231 67.0391C153.485 67.0391 153.717 67.0802 153.924 67.1625C154.132 67.2409 154.297 67.3644 154.418 67.5329C154.54 67.7014 154.6 67.9209 154.6 68.1913V70.3253H153.971V68.2442C153.971 68.0012 153.901 67.8268 153.76 67.721C153.619 67.6113 153.438 67.5564 153.219 67.5564C152.995 67.5564 152.821 67.6035 152.696 67.6975C152.57 67.7877 152.506 67.9033 152.502 68.0444L153.107 68.3383L153.054 68.6499C152.909 68.6538 152.788 68.7028 152.69 68.7968C152.596 68.8909 152.549 69.0359 152.549 69.2319V70.3253H151.92ZM156.302 70.3841C156.172 70.3841 156.055 70.3645 155.949 70.3253C155.847 70.2822 155.765 70.2136 155.702 70.1196C155.639 70.0216 155.608 69.8903 155.608 69.7257V67.1038H156.237V69.6493C156.237 69.7355 156.255 69.7982 156.29 69.8374C156.329 69.8727 156.39 69.8903 156.472 69.8903C156.504 69.8903 156.539 69.8864 156.578 69.8785C156.617 69.8707 156.655 69.8609 156.69 69.8491L156.76 70.29C156.686 70.3253 156.609 70.3488 156.531 70.3606C156.457 70.3763 156.38 70.3841 156.302 70.3841ZM157.954 70.3841C157.824 70.3841 157.707 70.3645 157.601 70.3253C157.499 70.2822 157.417 70.2136 157.354 70.1196C157.291 70.0216 157.26 69.8903 157.26 69.7257V67.1038H157.889V69.6493C157.889 69.7355 157.907 69.7982 157.942 69.8374C157.981 69.8727 158.042 69.8903 158.124 69.8903C158.156 69.8903 158.191 69.8864 158.23 69.8785C158.269 69.8707 158.306 69.8609 158.342 69.8491L158.412 70.29C158.338 70.3253 158.261 70.3488 158.183 70.3606C158.109 70.3763 158.032 70.3841 157.954 70.3841ZM160.811 70.3253V68.1972C160.811 67.9621 160.754 67.7955 160.641 67.6975C160.531 67.5956 160.351 67.5447 160.1 67.5447C159.9 67.5447 159.708 67.5721 159.524 67.627C159.343 67.6818 159.175 67.7543 159.018 67.8445V67.286C159.132 67.2272 159.286 67.1723 159.482 67.1214C159.682 67.0665 159.91 67.0391 160.164 67.0391C160.368 67.0391 160.548 67.0626 160.705 67.1096C160.862 67.1527 160.993 67.2194 161.099 67.3095C161.209 67.3997 161.291 67.5172 161.346 67.6622C161.405 67.8072 161.434 67.9817 161.434 68.1854V70.3253H160.811ZM159.812 70.3841C159.471 70.3841 159.208 70.3057 159.024 70.149C158.844 69.9883 158.753 69.759 158.753 69.4611C158.753 69.1398 158.869 68.8889 159.1 68.7087C159.335 68.5284 159.714 68.4226 160.235 68.3912L160.929 68.3442V68.838L160.311 68.885C159.963 68.9125 159.72 68.9712 159.582 69.0614C159.449 69.1515 159.382 69.2789 159.382 69.4435C159.382 69.6042 159.433 69.7218 159.535 69.7962C159.637 69.8707 159.776 69.9079 159.953 69.9079C160.015 69.9079 160.072 69.904 160.123 69.8962C160.178 69.8844 160.229 69.8727 160.276 69.8609L160.352 70.3018C160.278 70.3292 160.194 70.3488 160.1 70.3606C160.01 70.3763 159.914 70.3841 159.812 70.3841ZM162.804 68.3383C162.64 68.3383 162.507 68.3128 162.405 68.2619C162.303 68.2109 162.228 68.1463 162.181 68.0679C162.138 67.9856 162.117 67.8994 162.117 67.8092C162.117 67.7465 162.126 67.6838 162.146 67.6211C162.166 67.5545 162.189 67.4957 162.217 67.4447L162.722 67.5153C162.714 67.5388 162.705 67.5682 162.693 67.6035C162.685 67.6348 162.681 67.6681 162.681 67.7034C162.681 67.7543 162.695 67.7975 162.722 67.8327C162.754 67.8641 162.806 67.8798 162.881 67.8798H163.669V68.3383H162.804ZM162.804 69.9843C162.64 69.9843 162.507 69.9589 162.405 69.9079C162.303 69.857 162.228 69.7923 162.181 69.7139C162.138 69.6316 162.117 69.5454 162.117 69.4553C162.117 69.3926 162.126 69.3298 162.146 69.2671C162.166 69.2005 162.189 69.1417 162.217 69.0908L162.722 69.1613C162.714 69.1848 162.705 69.2142 162.693 69.2495C162.685 69.2809 162.681 69.3142 162.681 69.3494C162.681 69.4004 162.695 69.4435 162.722 69.4788C162.754 69.5101 162.806 69.5258 162.881 69.5258H163.669V69.9843H162.804ZM164.396 70.3253V67.7151C164.396 67.5388 164.429 67.4016 164.496 67.3036C164.563 67.2057 164.651 67.139 164.761 67.1038C164.87 67.0646 164.992 67.045 165.125 67.045C165.188 67.045 165.256 67.0528 165.331 67.0685C165.405 67.0802 165.468 67.0998 165.519 67.1273L165.437 67.5741C165.401 67.5623 165.364 67.5545 165.325 67.5505C165.29 67.5466 165.26 67.5447 165.237 67.5447C165.147 67.5447 165.084 67.5662 165.049 67.6093C165.013 67.6524 164.996 67.7151 164.996 67.7975V68.6028C164.996 68.7165 164.994 68.84 164.99 68.9732C164.99 69.1065 164.982 69.2671 164.966 69.4553H164.99C165.068 69.2828 165.139 69.1398 165.202 69.0261C165.268 68.9085 165.329 68.8008 165.384 68.7028L165.672 68.2148H166.001L166.283 68.7028C166.342 68.8047 166.393 68.8968 166.436 68.9791C166.483 69.0614 166.526 69.1398 166.565 69.2142C166.605 69.2887 166.642 69.369 166.677 69.4553H166.707C166.691 69.2671 166.681 69.1065 166.677 68.9732C166.673 68.84 166.671 68.7165 166.671 68.6028V67.1038H167.277V70.3253H166.701L165.848 68.8615H165.825L164.972 70.3253H164.396ZM170.106 70.3253V68.1972C170.106 67.9621 170.049 67.7955 169.935 67.6975C169.825 67.5956 169.645 67.5447 169.394 67.5447C169.194 67.5447 169.002 67.5721 168.818 67.627C168.638 67.6818 168.469 67.7543 168.313 67.8445V67.286C168.426 67.2272 168.581 67.1723 168.777 67.1214C168.977 67.0665 169.204 67.0391 169.459 67.0391C169.663 67.0391 169.843 67.0626 170 67.1096C170.157 67.1527 170.288 67.2194 170.394 67.3095C170.503 67.3997 170.586 67.5172 170.641 67.6622C170.699 67.8072 170.729 67.9817 170.729 68.1854V70.3253H170.106ZM169.106 70.3841C168.765 70.3841 168.503 70.3057 168.318 70.149C168.138 69.9883 168.048 69.759 168.048 69.4611C168.048 69.1398 168.164 68.8889 168.395 68.7087C168.63 68.5284 169.008 68.4226 169.53 68.3912L170.223 68.3442V68.838L169.606 68.885C169.257 68.9125 169.014 68.9712 168.877 69.0614C168.744 69.1515 168.677 69.2789 168.677 69.4435C168.677 69.6042 168.728 69.7218 168.83 69.7962C168.932 69.8707 169.071 69.9079 169.247 69.9079C169.31 69.9079 169.367 69.904 169.418 69.8962C169.473 69.8844 169.524 69.8727 169.571 69.8609L169.647 70.3018C169.573 70.3292 169.488 70.3488 169.394 70.3606C169.304 70.3763 169.208 70.3841 169.106 70.3841ZM171.823 67.6916V66.6981C171.823 66.5492 171.837 66.4297 171.864 66.3395C171.891 66.2455 171.929 66.169 171.976 66.1102C172.023 66.0515 172.072 66.0025 172.123 65.9633L172.117 65.9398H171.129L171.27 65.4636H172.993V65.9398C172.848 65.9398 172.72 65.9868 172.611 66.0809C172.505 66.1749 172.452 66.3474 172.452 66.5982V67.6916H171.823ZM172.511 70.3841C172.385 70.3841 172.27 70.3645 172.164 70.3253C172.062 70.2822 171.98 70.2136 171.917 70.1196C171.854 70.0216 171.823 69.8903 171.823 69.7257V67.1038H172.452V69.6493C172.452 69.7355 172.469 69.7982 172.505 69.8374C172.544 69.8727 172.603 69.8903 172.681 69.8903C172.716 69.8903 172.754 69.8864 172.793 69.8785C172.832 69.8707 172.867 69.8609 172.899 69.8491L172.975 70.29C172.901 70.3253 172.824 70.3488 172.746 70.3606C172.667 70.3763 172.589 70.3841 172.511 70.3841ZM175.158 70.3841C174.9 70.3841 174.68 70.3332 174.5 70.2313C174.324 70.1294 174.202 69.9902 174.135 69.8139H174.1L174.053 70.3253H173.553V67.1038H174.182V68.8733C174.182 69.0771 174.214 69.2515 174.277 69.3965C174.339 69.5415 174.431 69.6532 174.553 69.7316C174.674 69.8099 174.821 69.8491 174.994 69.8491C175.205 69.8491 175.364 69.7923 175.47 69.6787C175.576 69.5611 175.629 69.3886 175.629 69.1613V67.1038H176.258V69.2436C176.258 69.4984 176.215 69.71 176.128 69.8785C176.042 70.0471 175.917 70.1744 175.752 70.2607C175.587 70.343 175.39 70.3841 175.158 70.3841ZM174.587 66.6158V66.3454C174.657 66.3297 174.732 66.3082 174.81 66.2807C174.889 66.2494 174.955 66.2102 175.01 66.1632C175.061 66.1122 175.087 66.0515 175.087 65.9809C175.087 65.9339 175.073 65.8947 175.045 65.8633C175.014 65.8281 174.969 65.8104 174.91 65.8104C174.875 65.8104 174.838 65.8183 174.798 65.8339C174.759 65.8457 174.724 65.8575 174.693 65.8692L174.575 65.5283C174.653 65.4655 174.744 65.4244 174.846 65.4048C174.947 65.3813 175.032 65.3695 175.098 65.3695C175.259 65.3695 175.386 65.4126 175.48 65.4989C175.571 65.5851 175.616 65.6987 175.616 65.8398C175.616 65.9417 175.59 66.0319 175.539 66.1102C175.484 66.1886 175.416 66.2513 175.333 66.2984L175.286 66.1573H176.439V66.6158H174.587Z" fill="#191C1F"/>
<path d="M343.383 68.9429L339.472 65.0319C339.361 64.9217 339.3 64.7722 339.3 64.6164C339.3 64.4605 339.361 64.311 339.472 64.2008C339.582 64.0906 339.731 64.0287 339.887 64.0287C340.043 64.0287 340.193 64.0906 340.303 64.2008L343.798 67.6968L347.294 64.2018C347.348 64.1472 347.413 64.1039 347.484 64.0744C347.556 64.0449 347.632 64.0297 347.709 64.0297C347.786 64.0297 347.863 64.0449 347.934 64.0744C348.005 64.1039 348.07 64.1472 348.125 64.2018C348.179 64.2564 348.223 64.3211 348.252 64.3924C348.282 64.4637 348.297 64.5402 348.297 64.6173C348.297 64.6945 348.282 64.7709 348.252 64.8422C348.223 64.9135 348.179 64.9783 348.125 65.0329L344.214 68.9439C344.159 68.9985 344.094 69.0418 344.023 69.0714C343.952 69.1009 343.875 69.116 343.798 69.1159C343.721 69.1158 343.644 69.1005 343.573 69.0708C343.502 69.0411 343.437 68.9977 343.383 68.9429Z" fill="#2E3134"/>
<rect x="117.418" y="105.931" width="165.576" height="7.26919" rx="3.63459" fill="#EDEEF0"/>
<rect x="117.418" y="120.469" width="165.576" height="7.26919" rx="3.63459" fill="#EDEEF0"/>
<path fill-rule="evenodd" clip-rule="evenodd" d="M71.5474 58.2195C73.8229 59.1063 76.4183 60.6548 75.7583 62.3483C75.0858 64.0739 72.12 63.6031 69.8015 62.6996C65.8191 61.1476 59.8412 59.5594 60.9963 56.5955C62.1441 53.65 67.5899 56.6772 71.5474 58.2195Z" fill="black"/>
<path fill-rule="evenodd" clip-rule="evenodd" d="M89.3733 45.0195C90.0308 47.3714 90.3513 50.3766 88.6008 50.866C86.8172 51.3646 85.4125 48.7105 84.7426 46.314C83.5919 42.1976 81.2717 36.4641 84.3353 35.6076C87.3798 34.7565 88.2298 40.9289 89.3733 45.0195Z" fill="black"/>
<path fill-rule="evenodd" clip-rule="evenodd" d="M69.0598 43.6743C71.2726 41.6629 74.5066 44.6785 76.7836 47.1835C79.2548 49.9021 82.4917 53.6262 80.0902 55.8091C77.6817 57.9985 74.2527 54.4634 71.7743 51.7369C69.4896 49.2233 66.8394 45.6926 69.0598 43.6743Z" fill="black"/>
<path d="M446.918 143.024C433.585 159.273 403.113 186.226 384.223 167.629C371.325 154.932 388.671 142.287 402.243 156.726C415.815 171.164 400.303 201.333 364.696 185.984M370.166 194.886L364.696 185.984L371.482 182.057" stroke="#424242" stroke-width="3.24851" stroke-linecap="round"/>
<path d="M1.91797 58.9879C6.33349 47.3937 18.3336 26.5958 32.3927 33.4619C41.9915 38.1497 34.6546 48.4788 24.3516 42.9431C14.0486 37.4075 17.074 17.6127 39.8793 19.5282M35.1487 15.5717L39.8793 19.5282L36.8178 22.9982" stroke="#424242" stroke-width="3.83475" stroke-linecap="round"/>
</svg>
