<svg width="185" height="185" viewBox="0 0 185 185" fill="none" xmlns="http://www.w3.org/2000/svg">
<path d="M185 141.488H0V141.581H185V141.488Z" fill="#EBEBEB"/>
<path d="M41.314 144.593H29.0596V144.685H41.314V144.593Z" fill="#EBEBEB"/>
<path d="M60.4969 147.26H49.334V147.353H60.4969V147.26Z" fill="#EBEBEB"/>
<path d="M35.1867 148.026H21.0342V148.119H35.1867V148.026Z" fill="#EBEBEB"/>
<path d="M166.463 147.826H160.58V147.919H166.463V147.826Z" fill="#EBEBEB"/>
<path d="M159.392 147.826H144.844V147.919H159.392V147.826Z" fill="#EBEBEB"/>
<path d="M103.722 144.544H92.5V144.637H103.722V144.544Z" fill="#EBEBEB"/>
<path d="M132.004 144.544H105.327V144.637H132.004V144.544Z" fill="#EBEBEB"/>
<path d="M87.688 124.986H16.2447C15.6851 124.985 15.1486 124.762 14.7532 124.366C14.3578 123.97 14.1357 123.433 14.1357 122.874V22.4444C14.1406 21.8879 14.3648 21.3559 14.7597 20.9638C15.1546 20.5716 15.6883 20.3512 16.2447 20.3502H87.688C88.2484 20.3502 88.7857 20.5728 89.1819 20.969C89.5782 21.3652 89.8007 21.9026 89.8007 22.4629V122.874C89.8007 123.434 89.5782 123.971 89.1819 124.367C88.7857 124.764 88.2484 124.986 87.688 124.986ZM16.2447 20.4242C15.7096 20.4252 15.1967 20.6385 14.8186 21.0172C14.4406 21.396 14.2282 21.9093 14.2282 22.4444V122.874C14.2282 123.409 14.4406 123.922 14.8186 124.301C15.1967 124.679 15.7096 124.893 16.2447 124.894H87.688C88.2235 124.893 88.7368 124.68 89.1155 124.301C89.4941 123.922 89.7073 123.409 89.7082 122.874V22.4444C89.7073 21.9089 89.4941 21.3957 89.1155 21.017C88.7368 20.6384 88.2235 20.4252 87.688 20.4242H16.2447Z" fill="#EBEBEB"/>
<path d="M167.724 124.986H96.2768C95.7167 124.985 95.1799 124.762 94.7839 124.366C94.3879 123.97 94.165 123.434 94.1641 122.874V22.4444C94.1699 21.8876 94.395 21.3555 94.7904 20.9635C95.1859 20.5715 95.7199 20.3512 96.2768 20.3502H167.724C168.28 20.3521 168.812 20.5731 169.206 20.9651C169.6 21.3571 169.824 21.8886 169.829 22.4444V122.874C169.829 123.433 169.607 123.969 169.213 124.365C168.818 124.761 168.283 124.984 167.724 124.986ZM96.2768 20.4242C95.7413 20.4252 95.228 20.6384 94.8493 21.017C94.4707 21.3957 94.2575 21.9089 94.2566 22.4444V122.874C94.2575 123.409 94.4707 123.922 94.8493 124.301C95.228 124.68 95.7413 124.893 96.2768 124.894H167.724C168.259 124.893 168.773 124.68 169.151 124.301C169.53 123.922 169.743 123.409 169.744 122.874V22.4444C169.743 21.9089 169.53 21.3957 169.151 21.017C168.773 20.6384 168.259 20.4252 167.724 20.4242H96.2768Z" fill="#EBEBEB"/>
<path d="M108.555 98.4977H97.9102V141.488H108.555V98.4977Z" fill="#E6E6E6"/>
<path d="M104.13 141.488H108.555V134.073H99.4902L104.13 141.488Z" fill="#F5F5F5"/>
<path d="M31.6791 98.4977H21.0342V141.488H31.6791V98.4977Z" fill="#E6E6E6"/>
<path d="M108.55 98.4977H27.8164V138.935H108.55V98.4977Z" fill="#F5F5F5"/>
<path d="M105.306 110.911H31.0801V102.068H105.306V110.911ZM31.4501 110.541H104.936V102.438H31.4501V110.541Z" fill="#EBEBEB"/>
<path d="M32.2416 141.488H27.8164V134.073H36.8814L32.2416 141.488Z" fill="#F5F5F5"/>
<path d="M105.306 135.365H31.0801V114.275H105.306V135.365ZM31.4501 134.995H104.936V114.645H31.4501V134.995Z" fill="#EBEBEB"/>
<path d="M150.912 29.0527H66.7812V87.3129H150.912V29.0527Z" fill="#E6E6E6"/>
<path d="M152.46 29.0527H68.3291V87.3129H152.46V29.0527Z" fill="#F5F5F5"/>
<path d="M149.681 84.3751V31.9979L71.1038 31.9979V84.3751H149.681Z" fill="white"/>
<path d="M149.684 84.3713V31.9941H148.514V84.3713H149.684Z" fill="#E6E6E6"/>
<path d="M151.308 36.6857H69.4746V38.6615H151.308V36.6857Z" fill="#F5F5F5"/>
<g opacity="0.5">
<path d="M151.083 27.1063H147.761V91.8156H151.083V27.1063Z" fill="#F0F0F0"/>
<path d="M146.861 27.1063H143.538V91.8156H146.861V27.1063Z" fill="#F0F0F0"/>
<path d="M142.637 27.1063H139.314V91.8156H142.637V27.1063Z" fill="#F0F0F0"/>
<path d="M138.419 27.1063H135.097V91.8156H138.419V27.1063Z" fill="#F0F0F0"/>
<path d="M134.198 27.1063H130.875V91.8156H134.198V27.1063Z" fill="#F0F0F0"/>
<path d="M129.974 27.1063H126.651V91.8156H129.974V27.1063Z" fill="#F0F0F0"/>
<path d="M125.76 27.1063H122.438V91.8156H125.76V27.1063Z" fill="#F0F0F0"/>
<path d="M121.536 27.1063H118.214V91.8156H121.536V27.1063Z" fill="#F0F0F0"/>
<path d="M117.316 27.1063H113.993V91.8156H117.316V27.1063Z" fill="#F0F0F0"/>
<path d="M113.094 27.1063H109.771V91.8156H113.094V27.1063Z" fill="#F0F0F0"/>
<path d="M108.874 27.1063H105.552V91.8156H108.874V27.1063Z" fill="#F0F0F0"/>
<path d="M104.653 27.1063H101.33V91.8156H104.653V27.1063Z" fill="#F0F0F0"/>
<path d="M100.43 27.1063H97.1074V91.8156H100.43V27.1063Z" fill="#F0F0F0"/>
<path d="M96.2113 27.1063H92.8887V91.8156H96.2113V27.1063Z" fill="#F0F0F0"/>
<path d="M91.9935 27.1063H88.6709V91.8156H91.9935V27.1063Z" fill="#F0F0F0"/>
</g>
<path d="M47.4523 36.0123H23.0693V80.3531H47.4523V36.0123Z" fill="#F0F0F0"/>
<path d="M52.6886 36.0123H24.6426V80.3531H52.6886V36.0123Z" fill="#F5F5F5"/>
<path d="M25.7842 37.0632L25.7842 79.3024H51.5436V37.0632H25.7842Z" fill="white"/>
<path d="M32.6533 45.4694V70.8958C32.6533 71.4598 33.1105 71.917 33.6745 71.917H43.6608C44.2248 71.917 44.682 71.4598 44.682 70.8958V45.4694C44.682 44.9054 44.2248 44.4482 43.6608 44.4482H33.6745C33.1105 44.4482 32.6533 44.9054 32.6533 45.4694Z" fill="#F5F5F5"/>
<path d="M142.046 72.9974L147.034 85.2888C146.889 120.842 148.495 122.892 148.514 129.008H135.934C135.467 99.2489 139.882 105.939 142.046 72.9974Z" fill="#EBEBEB"/>
<path d="M149.078 109.305C138.943 81.4037 115.611 90.0432 116.658 100.215C117.705 110.386 154.905 125.352 149.078 109.305Z" fill="#EBEBEB"/>
<path d="M145.245 125.393C139.717 107.415 125.014 110.349 125.014 118.611C125.014 126.873 148.427 135.735 145.245 125.393Z" fill="#EBEBEB"/>
<path d="M144.85 92.9368C136.17 68.8868 114.551 72.2168 116.294 82.3511C118.037 92.4854 149.849 106.76 144.85 92.9368Z" fill="#EBEBEB"/>
<path d="M144.91 82.1587C145.713 65.7825 129.496 59.0411 130.62 68.8387C131.745 78.6363 144.447 91.5752 144.91 82.1587Z" fill="#EBEBEB"/>
<path d="M143.7 98.9234C147.122 78.7436 167.905 71.0698 165.582 82.4917C163.258 93.9136 141.728 110.53 143.7 98.9234Z" fill="#EBEBEB"/>
<path d="M141.95 87.5163C137.913 66.356 156.583 56.9542 157.12 67.1663C157.656 77.3783 144.27 99.6856 141.95 87.5163Z" fill="#EBEBEB"/>
<path d="M140.331 111.418C148.578 91.0275 166.231 96.0854 164.458 105.365C162.686 114.645 135.587 123.147 140.331 111.418Z" fill="#EBEBEB"/>
<path d="M144.4 125.656C144.215 112.502 156.158 109.102 156.299 116.724C156.439 124.346 144.507 133.222 144.4 125.656Z" fill="#EBEBEB"/>
<path d="M140.751 141.581C137.622 141.591 134.584 140.533 132.138 138.582C129.692 136.631 127.986 133.903 127.301 130.851C126.978 129.209 126.509 127.599 125.899 126.041L125.799 125.789H155.706L155.602 126.041C154.993 127.599 154.525 129.209 154.204 130.851C153.518 133.903 151.811 136.631 149.365 138.582C146.918 140.533 143.88 141.591 140.751 141.581Z" fill="#E0E0E0"/>
<path d="M47.8669 79.1578L47.6338 78.8729C48.5908 78.0926 49.605 77.3851 50.6678 76.7565L50.8565 77.0784C49.8094 77.6959 48.8101 78.391 47.8669 79.1578Z" fill="#407BFF"/>
<path d="M40.265 89.7324L39.9209 89.6029C41.1916 86.222 43.1681 83.1507 45.7188 80.5934L45.9815 80.8561C43.4681 83.376 41.5195 86.4018 40.265 89.7324Z" fill="#407BFF"/>
<path d="M111.95 106.038C111.922 102.826 111.11 99.6699 109.584 96.8435C108.058 94.0171 105.864 91.6064 103.194 89.821C100.524 88.0357 97.4579 86.9299 94.2629 86.5997C91.0679 86.2696 87.8406 86.7251 84.8618 87.9267C82.6954 83.4877 79.2026 79.8319 74.8669 77.4653C70.5312 75.0988 65.5671 74.1387 60.6616 74.7178C55.7562 75.297 51.1521 77.3868 47.4867 80.6979C43.8213 84.009 41.2759 88.3777 40.2028 93.1992C34.8848 93.5347 29.9065 95.9278 26.3229 99.8714C22.7394 103.815 20.8323 108.999 21.006 114.325C21.1797 119.65 23.4205 124.699 27.2534 128.401C31.0863 132.103 36.21 134.166 41.5385 134.155H106.777C110.178 134.159 113.473 132.971 116.088 130.796C118.703 128.622 120.473 125.599 121.089 122.254C121.705 118.909 121.129 115.454 119.46 112.49C117.792 109.527 115.136 107.242 111.957 106.035L111.95 106.038Z" fill="#407BFF"/>
<path d="M97.2769 99.4152H45.0699C44.6449 99.4133 44.238 99.2434 43.9379 98.9425C43.6377 98.6417 43.4687 98.2344 43.4678 97.8094C43.4688 97.3848 43.6379 96.9779 43.9381 96.6777C44.2383 96.3774 44.6453 96.2083 45.0699 96.2073H97.2769C97.7015 96.2083 98.1084 96.3774 98.4086 96.6777C98.7089 96.9779 98.878 97.3848 98.879 97.8094C98.878 98.2344 98.709 98.6417 98.4089 98.9425C98.1087 99.2434 97.7018 99.4133 97.2769 99.4152Z" fill="#263238"/>
<path d="M89.4017 121.097H52.9419C51.5131 121.097 50.1429 120.53 49.1326 119.52C48.1223 118.509 47.5547 117.139 47.5547 115.71C47.5547 114.281 48.1223 112.911 49.1326 111.901C50.1429 110.891 51.5131 110.323 52.9419 110.323H89.4017C90.8305 110.323 92.2007 110.891 93.211 111.901C94.2213 112.911 94.7889 114.281 94.7889 115.71C94.7889 117.139 94.2213 118.509 93.211 119.52C92.2007 120.53 90.8305 121.097 89.4017 121.097ZM52.9419 110.693C51.6112 110.693 50.3351 111.222 49.3942 112.163C48.4533 113.103 47.9247 114.38 47.9247 115.71C47.9247 117.041 48.4533 118.317 49.3942 119.258C50.3351 120.199 51.6112 120.727 52.9419 120.727H89.4017C90.7323 120.727 92.0085 120.199 92.9494 119.258C93.8903 118.317 94.4189 117.041 94.4189 115.71C94.4189 114.38 93.8903 113.103 92.9494 112.163C92.0085 111.222 90.7323 110.693 89.4017 110.693H52.9419Z" fill="white"/>
<path d="M61.4596 119.802H52.9496C51.8622 119.803 50.8189 119.373 50.0483 118.606C49.2777 117.839 48.8428 116.798 48.8389 115.71C48.8418 114.625 49.2738 113.586 50.0405 112.819C50.8072 112.051 51.8463 111.618 52.9311 111.614H61.4411C62.5258 111.618 63.565 112.051 64.3317 112.819C65.0984 113.586 65.5303 114.625 65.5333 115.71C65.5294 116.791 65.0996 117.827 64.337 118.593C63.5743 119.359 62.5405 119.794 61.4596 119.802Z" fill="white"/>
<path d="M98.768 68.313L91.8453 97.8094H50.5459L62.0973 48.5809L90.6946 55.289L98.768 68.313Z" fill="#407BFF"/>
<path opacity="0.8" d="M98.768 68.313L91.8453 97.8094H50.5459L62.0973 48.5809L90.6946 55.289L98.768 68.313Z" fill="#FAFAFA"/>
<path d="M93.3804 73.7966L62.0118 66.4336C61.9046 66.4088 61.8033 66.363 61.7138 66.2989C61.6243 66.2349 61.5483 66.1538 61.4902 66.0603C61.4321 65.9668 61.393 65.8627 61.3752 65.7541C61.3575 65.6454 61.3613 65.5344 61.3865 65.4272C61.4368 65.2104 61.5709 65.0225 61.7596 64.9045C61.9483 64.7866 62.1761 64.7484 62.3929 64.7982L93.7652 72.1501C93.9816 72.202 94.1687 72.3372 94.2858 72.5264C94.403 72.7156 94.4406 72.9434 94.3905 73.1602C94.3402 73.3781 94.2058 73.5673 94.0166 73.6865C93.8274 73.8057 93.5987 73.8453 93.3804 73.7966Z" fill="#407BFF"/>
<path d="M92.1813 78.9025L60.8127 71.5395C60.7053 71.5143 60.6039 71.4681 60.5144 71.4037C60.4248 71.3393 60.3489 71.2578 60.2908 71.164C60.2327 71.0702 60.1937 70.9659 60.176 70.857C60.1582 70.7481 60.1621 70.6368 60.1874 70.5294C60.2393 70.3131 60.3745 70.1259 60.5637 70.0088C60.7529 69.8917 60.9807 69.8541 61.1975 69.9041L92.5661 77.2671C92.7822 77.3182 92.9693 77.4527 93.0864 77.6413C93.2036 77.8299 93.2413 78.0572 93.1914 78.2735C93.1403 78.4906 93.0054 78.6786 92.8161 78.7965C92.6269 78.9143 92.3986 78.9525 92.1813 78.9025Z" fill="#407BFF"/>
<path d="M90.9813 83.99L59.6127 76.6307C59.3964 76.5788 59.2093 76.4436 59.0921 76.2544C58.975 76.0652 58.9374 75.8374 58.9874 75.6206C59.0402 75.4048 59.1756 75.2183 59.3645 75.1013C59.5535 74.9843 59.7808 74.9463 59.9975 74.9953L91.3661 82.3546C91.4735 82.3799 91.5749 82.426 91.6644 82.4905C91.754 82.5549 91.83 82.6363 91.888 82.7301C91.9461 82.8239 91.9851 82.9283 92.0029 83.0371C92.0206 83.146 92.0167 83.2573 91.9914 83.3647C91.9662 83.4721 91.92 83.5735 91.8556 83.663C91.7912 83.7526 91.7097 83.8285 91.6159 83.8866C91.5221 83.9447 91.4178 83.9837 91.3089 84.0014C91.2 84.0192 91.0887 84.0153 90.9813 83.99Z" fill="#407BFF"/>
<path d="M89.7871 89.1108L58.4148 81.77C58.1989 81.7173 58.0124 81.5818 57.8954 81.3929C57.7785 81.2039 57.7404 80.9766 57.7895 80.7599C57.8413 80.5435 57.9766 80.3564 58.1658 80.2393C58.355 80.1222 58.5828 80.0845 58.7996 80.1346L90.1682 87.4939C90.3847 87.5458 90.5721 87.6809 90.6898 87.8699C90.8075 88.059 90.8461 88.2868 90.7971 88.504C90.7421 88.7175 90.6053 88.9007 90.4164 89.0143C90.2274 89.1278 90.0014 89.1625 89.7871 89.1108Z" fill="#407BFF"/>
<path d="M76.1155 91.2902L57.2196 86.8502C57.0055 86.7959 56.8213 86.6595 56.707 86.4704C56.5928 86.2814 56.5576 86.0549 56.6091 85.8401C56.6339 85.7328 56.6797 85.6316 56.7438 85.542C56.8078 85.4525 56.8889 85.3765 56.9825 85.3184C57.076 85.2603 57.18 85.2213 57.2886 85.2035C57.3973 85.1857 57.5084 85.1895 57.6155 85.2148L76.5151 89.6548C76.6225 89.68 76.7239 89.7262 76.8134 89.7906C76.903 89.8551 76.9789 89.9365 77.037 90.0303C77.0951 90.1241 77.1341 90.2284 77.1518 90.3373C77.1696 90.4462 77.1657 90.5575 77.1404 90.6649C77.1153 90.7738 77.0686 90.8767 77.0032 90.9674C76.9378 91.0581 76.8549 91.1348 76.7595 91.1931C76.664 91.2513 76.5579 91.2899 76.4473 91.3066C76.3367 91.3233 76.2239 91.3177 76.1155 91.2902Z" fill="#407BFF"/>
<path d="M98.7684 68.3131L88.2197 65.8378L90.695 55.2891L98.7684 68.3131Z" fill="#407BFF"/>
</svg>
