<svg width="12" height="12" viewBox="0 0 12 12" fill="none" xmlns="http://www.w3.org/2000/svg">
<path d="M7.89799 9.35205C8.00366 9.45772 8.06303 9.60104 8.06303 9.75049C8.06303 9.89993 8.00366 10.0433 7.89799 10.1489C7.79232 10.2546 7.64899 10.314 7.49955 10.314C7.35011 10.314 7.20678 10.2546 7.10111 10.1489L3.35111 6.39892C3.29867 6.34667 3.25706 6.28457 3.22867 6.2162C3.20028 6.14782 3.18567 6.07452 3.18567 6.00049C3.18567 5.92645 3.20028 5.85315 3.22867 5.78478C3.25706 5.7164 3.29867 5.65431 3.35111 5.60205L7.10111 1.85205C7.20678 1.74638 7.35011 1.68701 7.49955 1.68701C7.64899 1.68701 7.79232 1.74638 7.89799 1.85205C8.00366 1.95772 8.06303 2.10104 8.06303 2.25049C8.06303 2.39993 8.00366 2.54325 7.89799 2.64892L4.54689 6.00002L7.89799 9.35205Z" fill="#2E3134"/>
</svg>
