<svg width="24" height="40" viewBox="0 0 24 40" fill="none" xmlns="http://www.w3.org/2000/svg">
<path d="M3.7041 14.2041L11.2041 6.70414C11.3086 6.59926 11.4328 6.51605 11.5696 6.45927C11.7063 6.40248 11.8529 6.37326 12.001 6.37326C12.149 6.37326 12.2957 6.40248 12.4324 6.45927C12.5691 6.51605 12.6933 6.59926 12.7979 6.70414L20.2979 14.2041C20.5092 14.4155 20.6279 14.7021 20.6279 15.001C20.6279 15.2999 20.5092 15.5865 20.2979 15.7979C20.0865 16.0092 19.7999 16.128 19.501 16.128C19.2021 16.128 18.9154 16.0092 18.7041 15.7979L12 9.09383L5.29598 15.7988C5.08464 16.0102 4.79799 16.1289 4.4991 16.1289C4.20022 16.1289 3.91357 16.0102 3.70223 15.7988C3.49089 15.5875 3.37215 15.3008 3.37215 15.002C3.37215 14.7031 3.49089 14.4164 3.70223 14.2051L3.7041 14.2041Z" fill="black"/>
<path d="M20.2959 25.7959L12.7959 33.2959C12.6914 33.4007 12.5672 33.484 12.4304 33.5407C12.2937 33.5975 12.1471 33.6267 11.999 33.6267C11.851 33.6267 11.7043 33.5975 11.5676 33.5407C11.4309 33.484 11.3067 33.4007 11.2021 33.2959L3.70215 25.7959C3.4908 25.5845 3.37207 25.2979 3.37207 24.999C3.37207 24.7001 3.4908 24.4135 3.70215 24.2021C3.91349 23.9908 4.20014 23.872 4.49902 23.872C4.79791 23.872 5.08455 23.9908 5.2959 24.2021L12 30.9062L18.704 24.2012C18.9154 23.9898 19.202 23.8711 19.5009 23.8711C19.7998 23.8711 20.0864 23.9898 20.2978 24.2012C20.5091 24.4125 20.6278 24.6992 20.6278 24.998C20.6278 25.2969 20.5091 25.5836 20.2978 25.7949L20.2959 25.7959Z" fill="black"/>
</svg>
