<svg width="24" height="17" viewBox="0 0 24 17" fill="none" xmlns="http://www.w3.org/2000/svg">
<path d="M22.5893 14.9286H21.6071V12.375C21.6071 12.2187 21.5451 12.0688 21.4345 11.9583C21.324 11.8478 21.1741 11.7857 21.0179 11.7857H14.7321C14.5759 11.7857 14.426 11.8478 14.3155 11.9583C14.2049 12.0688 14.1429 12.2187 14.1429 12.375V14.9286H2.75V1.375C2.75 1.3229 2.7707 1.27294 2.80753 1.2361C2.84437 1.19927 2.89433 1.17857 2.94643 1.17857H20.2321C20.2842 1.17857 20.3342 1.19927 20.371 1.2361C20.4079 1.27294 20.4286 1.3229 20.4286 1.375V9.23214C20.4286 9.38843 20.4907 9.53832 20.6012 9.64883C20.7117 9.75934 20.8616 9.82143 21.0179 9.82143C21.1741 9.82143 21.324 9.75934 21.4345 9.64883C21.5451 9.53832 21.6071 9.38843 21.6071 9.23214V1.375C21.6071 1.01033 21.4623 0.660591 21.2044 0.402728C20.9466 0.144866 20.5968 0 20.2321 0H2.94643C2.58176 0 2.23202 0.144866 1.97416 0.402728C1.71629 0.660591 1.57143 1.01033 1.57143 1.375V14.9286H0.589286C0.432997 14.9286 0.28311 14.9907 0.172598 15.1012C0.0620853 15.2117 0 15.3616 0 15.5179C0 15.6741 0.0620853 15.824 0.172598 15.9345C0.28311 16.0451 0.432997 16.1071 0.589286 16.1071H22.5893C22.7456 16.1071 22.8955 16.0451 23.006 15.9345C23.1165 15.824 23.1786 15.6741 23.1786 15.5179C23.1786 15.3616 23.1165 15.2117 23.006 15.1012C22.8955 14.9907 22.7456 14.9286 22.5893 14.9286ZM15.3214 12.9643H20.4286V14.9286H15.3214V12.9643Z" fill="#44474A"/>
</svg>
