<svg width="15" height="11" viewBox="0 0 15 11" fill="none" xmlns="http://www.w3.org/2000/svg">
<path d="M14.7231 3.73625L13.8481 1.54875C13.7837 1.38603 13.6717 1.24651 13.5267 1.1484C13.3818 1.05028 13.2106 0.998135 13.0356 0.99875H10.75V0.375C10.75 0.275544 10.7105 0.180161 10.6402 0.109835C10.5698 0.0395088 10.4745 0 10.375 0H0.875C0.642936 0 0.420376 0.0921873 0.256282 0.256282C0.0921873 0.420376 0 0.642936 0 0.875V7.875C0 8.10706 0.0921873 8.32962 0.256282 8.49372C0.420376 8.65781 0.642936 8.75 0.875 8.75H2.0375C2.12357 9.17386 2.35352 9.55493 2.6884 9.82864C3.02328 10.1024 3.44249 10.2519 3.875 10.2519C4.30751 10.2519 4.72672 10.1024 5.0616 9.82864C5.39648 9.55493 5.62643 9.17386 5.7125 8.75H9.0375C9.12357 9.17386 9.35352 9.55493 9.6884 9.82864C10.0233 10.1024 10.4425 10.2519 10.875 10.2519C11.3075 10.2519 11.7267 10.1024 12.0616 9.82864C12.3965 9.55493 12.6264 9.17386 12.7125 8.75H13.875C14.1071 8.75 14.3296 8.65781 14.4937 8.49372C14.6578 8.32962 14.75 8.10706 14.75 7.875V3.875C14.7499 3.82746 14.7408 3.78038 14.7231 3.73625ZM10.75 1.75H13.0363C13.0613 1.74998 13.0857 1.75747 13.1065 1.77151C13.1272 1.78555 13.1432 1.80549 13.1525 1.82875L13.8212 3.5H10.75V1.75ZM0.75 0.875C0.75 0.841848 0.76317 0.810054 0.786612 0.786612C0.810054 0.76317 0.841848 0.75 0.875 0.75H10V5H0.75V0.875ZM3.875 9.5C3.6525 9.5 3.43499 9.43402 3.24998 9.3104C3.06498 9.18679 2.92078 9.01109 2.83564 8.80552C2.75049 8.59995 2.72821 8.37375 2.77162 8.15552C2.81502 7.93729 2.92217 7.73684 3.0795 7.5795C3.23684 7.42217 3.43729 7.31503 3.65552 7.27162C3.87375 7.22821 4.09995 7.25049 4.30552 7.33564C4.51109 7.42078 4.68679 7.56498 4.8104 7.74998C4.93402 7.93499 5 8.1525 5 8.375C5 8.67337 4.88147 8.95952 4.6705 9.1705C4.45952 9.38147 4.17337 9.5 3.875 9.5ZM9.0375 8H5.7125C5.62643 7.57614 5.39648 7.19507 5.0616 6.92136C4.72672 6.64764 4.30751 6.49812 3.875 6.49812C3.44249 6.49812 3.02328 6.64764 2.6884 6.92136C2.35352 7.19507 2.12357 7.57614 2.0375 8H0.875C0.841848 8 0.810054 7.98683 0.786612 7.96339C0.76317 7.93995 0.75 7.90815 0.75 7.875V5.75H10V6.7175C9.75499 6.84716 9.54166 7.02936 9.37527 7.25107C9.20887 7.47278 9.09354 7.72852 9.0375 8ZM10.875 9.5C10.6525 9.5 10.435 9.43402 10.25 9.3104C10.065 9.18679 9.92078 9.01109 9.83564 8.80552C9.75049 8.59995 9.72821 8.37375 9.77162 8.15552C9.81503 7.93729 9.92217 7.73684 10.0795 7.5795C10.2368 7.42217 10.4373 7.31503 10.6555 7.27162C10.8738 7.22821 11.1 7.25049 11.3055 7.33564C11.5111 7.42078 11.6868 7.56498 11.8104 7.74998C11.934 7.93499 12 8.1525 12 8.375C12 8.67337 11.8815 8.95952 11.6705 9.1705C11.4595 9.38147 11.1734 9.5 10.875 9.5ZM14 7.875C14 7.90815 13.9868 7.93995 13.9634 7.96339C13.9399 7.98683 13.9082 8 13.875 8H12.7125C12.6255 7.57676 12.3952 7.19646 12.0605 6.92321C11.7258 6.64997 11.3071 6.5005 10.875 6.5C10.8331 6.5 10.7913 6.5 10.75 6.50438V4.25H14V7.875Z" fill="#2E3134"/>
</svg>
