<svg width="16" height="16" viewBox="0 0 16 16" fill="none" xmlns="http://www.w3.org/2000/svg">
<path d="M13 5.625H3C2.76794 5.625 2.54538 5.71719 2.38128 5.88128C2.21719 6.04538 2.125 6.26794 2.125 6.5V12.5C2.125 12.7321 2.21719 12.9546 2.38128 13.1187C2.54538 13.2828 2.76794 13.375 3 13.375H13C13.2321 13.375 13.4546 13.2828 13.6187 13.1187C13.7828 12.9546 13.875 12.7321 13.875 12.5V6.5C13.875 6.26794 13.7828 6.04538 13.6187 5.88128C13.4546 5.71719 13.2321 5.625 13 5.625ZM13.125 12.5C13.125 12.5332 13.1118 12.5649 13.0884 12.5884C13.0649 12.6118 13.0332 12.625 13 12.625H3C2.96685 12.625 2.93505 12.6118 2.91161 12.5884C2.88817 12.5649 2.875 12.5332 2.875 12.5V6.5C2.875 6.46685 2.88817 6.43505 2.91161 6.41161C2.93505 6.38817 2.96685 6.375 3 6.375H13C13.0332 6.375 13.0649 6.38817 13.0884 6.41161C13.1118 6.43505 13.125 6.46685 13.125 6.5V12.5ZM3.125 4C3.125 3.90054 3.16451 3.80516 3.23483 3.73483C3.30516 3.66451 3.40054 3.625 3.5 3.625H12.5C12.5995 3.625 12.6948 3.66451 12.7652 3.73483C12.8355 3.80516 12.875 3.90054 12.875 4C12.875 4.09946 12.8355 4.19484 12.7652 4.26516C12.6948 4.33549 12.5995 4.375 12.5 4.375H3.5C3.40054 4.375 3.30516 4.33549 3.23483 4.26516C3.16451 4.19484 3.125 4.09946 3.125 4ZM4.125 2C4.125 1.90054 4.16451 1.80516 4.23484 1.73483C4.30516 1.66451 4.40054 1.625 4.5 1.625H11.5C11.5995 1.625 11.6948 1.66451 11.7652 1.73483C11.8355 1.80516 11.875 1.90054 11.875 2C11.875 2.09946 11.8355 2.19484 11.7652 2.26517C11.6948 2.33549 11.5995 2.375 11.5 2.375H4.5C4.40054 2.375 4.30516 2.33549 4.23484 2.26517C4.16451 2.19484 4.125 2.09946 4.125 2Z" fill="#2E3134"/>
</svg>
