<svg width="24" height="24" viewBox="0 0 24 24" fill="none" xmlns="http://www.w3.org/2000/svg">
<path d="M12.525 16.4795C12.675 16.3323 12.75 16.1573 12.75 15.9545C12.75 15.7515 12.6765 15.575 12.5295 15.425C12.3823 15.275 12.2073 15.2 12.0045 15.2C11.8015 15.2 11.625 15.2735 11.475 15.4205C11.325 15.5677 11.25 15.7427 11.25 15.9455C11.25 16.1485 11.3235 16.325 11.4705 16.475C11.6177 16.625 11.7927 16.7 11.9955 16.7C12.1985 16.7 12.375 16.6265 12.525 16.4795ZM11.35 13.15H12.7V7H11.35V13.15ZM12.0043 21.5C10.6908 21.5 9.45567 21.2507 8.299 20.7522C7.14233 20.2537 6.13625 19.5772 5.28075 18.7225C4.42508 17.8678 3.74775 16.8629 3.24875 15.7078C2.74958 14.5524 2.5 13.3179 2.5 12.0043C2.5 10.6864 2.74975 9.44733 3.24925 8.287C3.74875 7.12667 4.42667 6.11725 5.283 5.25875C6.13933 4.40042 7.14425 3.72608 8.29775 3.23575C9.45142 2.74525 10.6841 2.5 11.9957 2.5C13.3134 2.5 14.5523 2.74492 15.7125 3.23475C16.8728 3.72458 17.8823 4.39833 18.7408 5.256C19.5994 6.11367 20.2739 7.12217 20.7642 8.2815C21.2548 9.44083 21.5 10.6796 21.5 11.9978C21.5 13.3159 21.2551 14.5505 20.7652 15.7015C20.2754 16.8525 19.6018 17.8566 18.7443 18.7138C17.8869 19.5711 16.8787 20.2498 15.7197 20.75C14.5606 21.25 13.3221 21.5 12.0043 21.5ZM12 20.15C14.2752 20.15 16.2023 19.3605 17.7815 17.7815C19.3605 16.2023 20.15 14.2752 20.15 12C20.15 9.72483 19.3605 7.79767 17.7815 6.2185C16.2023 4.6395 14.2752 3.85 12 3.85C9.72483 3.85 7.79767 4.6395 6.2185 6.2185C4.6395 7.79767 3.85 9.72483 3.85 12C3.85 14.2752 4.6395 16.2023 6.2185 17.7815C7.79767 19.3605 9.72483 20.15 12 20.15Z" fill="#1A69D9"/>
</svg>
