<svg width="12" height="12" viewBox="0 0 12 12" fill="none" xmlns="http://www.w3.org/2000/svg">
<path d="M6.375 3.375V5.39297L8.08219 4.53938C8.17114 4.49487 8.27413 4.48752 8.3685 4.51895C8.46287 4.55038 8.54089 4.618 8.58539 4.70696C8.6299 4.79591 8.63725 4.89889 8.60582 4.99326C8.57439 5.08763 8.50677 5.16565 8.41781 5.21016L6.16781 6.33516C6.11066 6.36376 6.04714 6.37728 5.98329 6.37443C5.91944 6.37158 5.85737 6.35246 5.80299 6.31888C5.74861 6.2853 5.70371 6.23838 5.67256 6.18257C5.64141 6.12676 5.62504 6.06392 5.625 6V3.375C5.625 3.27555 5.66451 3.18016 5.73484 3.10984C5.80516 3.03951 5.90055 3 6 3C6.09946 3 6.19484 3.03951 6.26517 3.10984C6.33549 3.18016 6.375 3.27555 6.375 3.375ZM6 10.125C5.18415 10.125 4.38663 9.88307 3.70827 9.42981C3.02992 8.97655 2.50121 8.33232 2.189 7.57857C1.87679 6.82483 1.7951 5.99543 1.95426 5.19525C2.11343 4.39508 2.5063 3.66008 3.08319 3.08319C3.66008 2.5063 4.39508 2.11343 5.19525 1.95426C5.99543 1.7951 6.82483 1.87679 7.57857 2.189C8.33232 2.50121 8.97655 3.02992 9.42981 3.70827C9.88307 4.38663 10.125 5.18415 10.125 6C10.125 6.09946 10.1645 6.19484 10.2348 6.26517C10.3052 6.33549 10.4005 6.375 10.5 6.375C10.5995 6.375 10.6948 6.33549 10.7652 6.26517C10.8355 6.19484 10.875 6.09946 10.875 6C10.875 5.03582 10.5891 4.09329 10.0534 3.2916C9.51774 2.48991 8.75637 1.86507 7.86558 1.49609C6.97479 1.12711 5.99459 1.03057 5.04894 1.21867C4.10328 1.40678 3.23464 1.87108 2.55286 2.55286C1.87108 3.23464 1.40678 4.10328 1.21867 5.04894C1.03057 5.99459 1.12711 6.97479 1.49609 7.86558C1.86507 8.75637 2.48991 9.51774 3.2916 10.0534C4.09329 10.5891 5.03582 10.875 6 10.875C6.09946 10.875 6.19484 10.8355 6.26517 10.7652C6.33549 10.6948 6.375 10.5995 6.375 10.5C6.375 10.4005 6.33549 10.3052 6.26517 10.2348C6.19484 10.1645 6.09946 10.125 6 10.125ZM10.8623 10.4034C10.8761 10.4514 10.8801 10.5016 10.8742 10.5511C10.8684 10.6006 10.8527 10.6484 10.8281 10.6918C10.8035 10.7351 10.7705 10.7732 10.731 10.8036C10.6915 10.8341 10.6464 10.8564 10.5982 10.8692C10.55 10.882 10.4998 10.8851 10.4504 10.8782C10.401 10.8714 10.3535 10.8548 10.3106 10.8293C10.2677 10.8039 10.2303 10.7702 10.2006 10.7301C10.1709 10.6901 10.1495 10.6445 10.1377 10.5961C10.005 10.0978 9.53719 9.75 9 9.75C8.46281 9.75 7.995 10.0978 7.86235 10.5961C7.84115 10.676 7.79413 10.7467 7.7286 10.7972C7.66307 10.8476 7.5827 10.875 7.5 10.875C7.46741 10.8749 7.43496 10.8707 7.40344 10.8623C7.30734 10.8367 7.22535 10.774 7.17551 10.6879C7.12567 10.6019 7.11205 10.4995 7.13766 10.4034C7.25929 9.95178 7.54535 9.56189 7.93969 9.31031C7.72975 9.1006 7.58672 8.83333 7.52871 8.54231C7.4707 8.2513 7.50031 7.94961 7.61379 7.67543C7.72727 7.40124 7.91953 7.16688 8.16624 7.00198C8.41295 6.83709 8.70303 6.74907 8.99977 6.74907C9.29651 6.74907 9.58658 6.83709 9.83329 7.00198C10.08 7.16688 10.2723 7.40124 10.3857 7.67543C10.4992 7.94961 10.5288 8.2513 10.4708 8.54231C10.4128 8.83333 10.2698 9.1006 10.0598 9.31031C10.4544 9.56181 10.7406 9.9517 10.8623 10.4034ZM8.25 8.25C8.25 8.39834 8.29399 8.54334 8.3764 8.66668C8.45881 8.79002 8.57594 8.88615 8.71299 8.94291C8.85003 8.99968 9.00083 9.01453 9.14632 8.98559C9.29181 8.95665 9.42544 8.88522 9.53033 8.78033C9.63522 8.67544 9.70665 8.54181 9.73559 8.39632C9.76453 8.25083 9.74968 8.10003 9.69291 7.96299C9.63615 7.82594 9.54002 7.70881 9.41668 7.6264C9.29334 7.54399 9.14834 7.5 9 7.5C8.80109 7.5 8.61032 7.57902 8.46967 7.71967C8.32902 7.86032 8.25 8.05109 8.25 8.25Z" fill="#1868DB"/>
</svg>
