<svg width="16" height="16" viewBox="0 0 16 16" fill="none" xmlns="http://www.w3.org/2000/svg">
<path d="M8 1.625C6.73915 1.625 5.50661 1.99889 4.45824 2.69938C3.40988 3.39988 2.59278 4.39551 2.11027 5.56039C1.62776 6.72527 1.50152 8.00707 1.7475 9.2437C1.99348 10.4803 2.60064 11.6162 3.4922 12.5078C4.38376 13.3994 5.51967 14.0065 6.7563 14.2525C7.99293 14.4985 9.27473 14.3722 10.4396 13.8897C11.6045 13.4072 12.6001 12.5901 13.3006 11.5418C14.0011 10.4934 14.375 9.26086 14.375 8C14.373 6.30985 13.7007 4.6895 12.5056 3.49439C11.3105 2.29927 9.69015 1.62698 8 1.625ZM8 13.625C6.88748 13.625 5.79995 13.2951 4.87492 12.677C3.94989 12.0589 3.22892 11.1804 2.80318 10.1526C2.37744 9.12476 2.26604 7.99376 2.48309 6.90262C2.70013 5.81147 3.23586 4.80919 4.02253 4.02252C4.8092 3.23585 5.81148 2.70012 6.90262 2.48308C7.99376 2.26604 9.12476 2.37743 10.1526 2.80318C11.1804 3.22892 12.0589 3.94989 12.677 4.87492C13.2951 5.79994 13.625 6.88748 13.625 8C13.6233 9.49133 13.0302 10.9211 11.9757 11.9756C10.9211 13.0302 9.49134 13.6233 8 13.625ZM11.875 8C11.875 8.09946 11.8355 8.19484 11.7652 8.26517C11.6948 8.33549 11.5995 8.375 11.5 8.375H8.90563L10.765 10.235C10.8018 10.2693 10.8314 10.3107 10.8519 10.3567C10.8724 10.4027 10.8834 10.4524 10.8843 10.5027C10.8852 10.5531 10.8759 10.6031 10.8571 10.6498C10.8382 10.6965 10.8101 10.7389 10.7745 10.7745C10.7389 10.8101 10.6965 10.8382 10.6498 10.8571C10.6031 10.8759 10.5531 10.8852 10.5027 10.8843C10.4524 10.8834 10.4027 10.8724 10.3567 10.8519C10.3107 10.8314 10.2693 10.8018 10.235 10.765L7.735 8.265C7.68262 8.21256 7.64696 8.14577 7.63252 8.07307C7.61808 8.00037 7.6255 7.92502 7.65386 7.85654C7.68221 7.78806 7.73023 7.72951 7.79184 7.6883C7.85344 7.64709 7.92588 7.62507 8 7.625H11.5C11.5995 7.625 11.6948 7.66451 11.7652 7.73484C11.8355 7.80516 11.875 7.90054 11.875 8Z" fill="#5C5F62"/>
</svg>
