<svg width="9" height="9" viewBox="0 0 9 9" fill="none" xmlns="http://www.w3.org/2000/svg">
<path d="M7.88754 0.191296C8.01001 0.313767 8.07881 0.479873 8.07881 0.653072C8.07881 0.826272 8.01001 0.992377 7.88754 1.11485L4.96296 4.03943L7.88754 6.96401C8.01001 7.08648 8.07881 7.25259 8.07881 7.42579C8.07881 7.59898 8.01001 7.76509 7.88754 7.88756C7.76507 8.01003 7.59896 8.07883 7.42576 8.07883C7.25256 8.07883 7.08646 8.01003 6.96399 7.88756L4.0394 4.96298L1.11482 7.88756C0.992353 8.01003 0.826247 8.07883 0.653048 8.07883C0.479848 8.07883 0.313743 8.01003 0.191272 7.88756C0.0688017 7.76509 -1.7893e-06 7.59898 -1.7893e-06 7.42579C-1.7893e-06 7.25259 0.0688016 7.08648 0.191272 6.96401L3.11585 4.03943L0.191272 1.11485C0.0688016 0.992377 -1.7893e-06 0.826272 -1.7893e-06 0.653072C-1.7893e-06 0.479873 0.0688017 0.313767 0.191272 0.191296C0.313743 0.0688255 0.479848 2.26831e-05 0.653048 2.26831e-05C0.826247 2.26831e-05 0.992353 0.0688257 1.11482 0.191296L4.0394 3.11588L6.96399 0.191296C7.08646 0.0688252 7.25256 2.25567e-05 7.42576 2.25567e-05C7.59896 2.25567e-05 7.76507 0.0688255 7.88754 0.191296Z" fill="#2E3134"/>
</svg>
