<svg width="13" height="13" viewBox="0 0 13 13" fill="none" xmlns="http://www.w3.org/2000/svg">
<g clip-path="url(#clip0_284_13129)">
<path d="M10.7915 3.19135L6.5459 0.868324C6.43246 0.805644 6.30498 0.772766 6.17537 0.772766C6.04577 0.772766 5.91828 0.805644 5.80485 0.868324L1.55924 3.19231C1.43799 3.25865 1.33678 3.35633 1.26617 3.47514C1.19557 3.59395 1.15815 3.72954 1.15784 3.86775V8.48195C1.15815 8.62016 1.19557 8.75575 1.26617 8.87456C1.33678 8.99337 1.43799 9.09105 1.55924 9.15739L5.80485 11.4814C5.91828 11.5441 6.04577 11.5769 6.17537 11.5769C6.30498 11.5769 6.43246 11.5441 6.5459 11.4814L10.7915 9.15739C10.9128 9.09105 11.014 8.99337 11.0846 8.87456C11.1552 8.75575 11.1926 8.62016 11.1929 8.48195V3.86823C11.1929 3.72978 11.1556 3.59388 11.0849 3.4748C11.0143 3.35571 10.913 3.2578 10.7915 3.19135ZM6.17537 1.54376L10.0514 3.66656L6.17537 5.78937L2.29933 3.66656L6.17537 1.54376ZM1.92977 4.342L5.78941 6.45419V10.5932L1.92977 8.48243V4.342ZM6.56134 10.5932V6.45612L10.421 4.342V8.4805L6.56134 10.5932Z" fill="#A9ABAF"/>
</g>
<defs>
<clipPath id="clip0_284_13129">
<rect width="12.3509" height="12.3509" fill="white"/>
</clipPath>
</defs>
</svg>
