<svg width="11" height="3" viewBox="0 0 11 3" fill="none" xmlns="http://www.w3.org/2000/svg">
<path d="M1.10793 2.21591C0.888794 2.21591 0.674582 2.15093 0.492379 2.02919C0.310177 1.90744 0.168168 1.7344 0.0843096 1.53195C0.00045117 1.3295 -0.0214888 1.10673 0.0212619 0.891804C0.0640126 0.676882 0.169533 0.479463 0.324484 0.324513C0.479434 0.169563 0.676854 0.0640401 0.891776 0.0212894C1.1067 -0.0214612 1.32947 0.000480369 1.53192 0.0843388C1.73437 0.168197 1.90741 0.310206 2.02916 0.492408C2.1509 0.674611 2.21588 0.888822 2.21588 1.10796C2.21588 1.4018 2.09915 1.68362 1.89137 1.8914C1.68359 2.09918 1.40177 2.21591 1.10793 2.21591Z" fill="#2E3134"/>
<path d="M5.32387 2.21591C5.10474 2.21591 4.89052 2.15093 4.70832 2.02919C4.52612 1.90744 4.38411 1.7344 4.30025 1.53195C4.21639 1.3295 4.19445 1.10673 4.2372 0.891804C4.27995 0.676882 4.38548 0.479463 4.54043 0.324513C4.69538 0.169563 4.8928 0.0640401 5.10772 0.0212894C5.32264 -0.0214612 5.54541 0.000480369 5.74787 0.0843388C5.95032 0.168197 6.12336 0.310206 6.2451 0.492408C6.36684 0.674611 6.43182 0.888822 6.43182 1.10796C6.43182 1.4018 6.31509 1.68362 6.10731 1.8914C5.89953 2.09918 5.61772 2.21591 5.32387 2.21591Z" fill="#2E3134"/>
<path d="M9.53975 2.21591C9.32062 2.21591 9.10641 2.15093 8.9242 2.02919C8.742 1.90744 8.59999 1.7344 8.51613 1.53195C8.43227 1.3295 8.41033 1.10673 8.45309 0.891804C8.49584 0.676882 8.60136 0.479463 8.75631 0.324513C8.91126 0.169563 9.10868 0.0640401 9.3236 0.0212894C9.53852 -0.0214612 9.76129 0.000480369 9.96375 0.0843388C10.1662 0.168197 10.3392 0.310206 10.461 0.492408C10.5827 0.674611 10.6477 0.888822 10.6477 1.10796C10.6477 1.4018 10.531 1.68362 10.3232 1.8914C10.1154 2.09918 9.8336 2.21591 9.53975 2.21591Z" fill="#2E3134"/>
</svg>
