<svg width="15" height="11" viewBox="0 0 15 11" fill="none" xmlns="http://www.w3.org/2000/svg">
<path d="M13.9918 0.160025C13.9566 0.111294 13.9085 0.0711472 13.8517 0.0432095C13.7949 0.0152718 13.7312 0.000421867 13.6663 0H8.45931C8.38433 3.8871e-05 8.31095 0.0193743 8.24793 0.0556966C8.18491 0.0920189 8.13492 0.143792 8.10393 0.204832L7.49797 1.39658H0.38844C0.313229 1.39694 0.239735 1.41671 0.176789 1.45351C0.113842 1.49032 0.0641209 1.54259 0.0336002 1.60404C0.00307958 1.6655 -0.00694219 1.73353 0.00473928 1.79995C0.0164207 1.86638 0.0493084 1.92838 0.0994503 1.97849L2.46409 4.30613L0.0994503 6.63378C0.0493084 6.68389 0.0164207 6.74589 0.00473928 6.81232C-0.00694219 6.87874 0.00307958 6.94677 0.0336002 7.00823C0.0641209 7.06968 0.113842 7.12195 0.176789 7.15876C0.239735 7.19556 0.313229 7.21533 0.38844 7.21568H5.1457C5.22068 7.21565 5.29406 7.19631 5.35708 7.15999C5.42009 7.12367 5.47008 7.07189 5.50108 7.01085L6.10704 5.8191H10.4562L8.10393 10.4465C8.0828 10.4882 8.07109 10.5334 8.06947 10.5792C8.06785 10.625 8.07635 10.6707 8.09449 10.7136C8.11262 10.7565 8.14003 10.7958 8.17516 10.8293C8.21028 10.8627 8.25243 10.8896 8.29919 10.9085C8.34941 10.9291 8.40403 10.9399 8.45931 10.9399C8.53429 10.9399 8.60767 10.9205 8.67069 10.8842C8.73371 10.8479 8.7837 10.7961 8.81469 10.7351L14.0217 0.49346C14.0483 0.440082 14.0595 0.381584 14.0543 0.323328C14.0491 0.265072 14.0276 0.208922 13.9918 0.160025ZM4.89446 6.51739H1.27103L3.28094 4.5389C3.34643 4.4746 3.38273 4.39077 3.38273 4.30381C3.38273 4.21684 3.34643 4.13301 3.28094 4.06872L1.27103 2.09488H7.14259L4.89446 6.51739ZM10.8116 5.12081H6.46242L8.71055 0.698292H13.0597L10.8116 5.12081Z" fill="#2E3134"/>
</svg>
