<svg width="15" height="15" viewBox="0 0 15 15" fill="none" xmlns="http://www.w3.org/2000/svg">
<path d="M13.8998 2.03723C13.5697 1.7082 13.1226 1.52344 12.6564 1.52344C12.1903 1.52344 11.7432 1.7082 11.4131 2.03723C11.084 2.36738 10.8993 2.81448 10.8993 3.28059C10.8993 3.74671 11.084 4.19381 11.4131 4.52395C11.4512 4.56145 11.4904 4.59661 11.5303 4.63001L9.88145 7.69212C9.63444 7.61842 9.37428 7.59974 9.11928 7.6374C8.86428 7.67506 8.62063 7.76814 8.40547 7.91009L7.08945 6.59407C7.32864 6.23076 7.42463 5.79167 7.35885 5.36169C7.29308 4.93172 7.07023 4.5414 6.73337 4.2662C6.39652 3.991 5.96959 3.85047 5.53514 3.87178C5.10068 3.89309 4.68956 4.07473 4.38125 4.38157C4.21799 4.5448 4.08849 4.7386 4.00013 4.95188C3.91177 5.16517 3.86629 5.39377 3.86629 5.62464C3.86629 5.8555 3.91177 6.0841 4.00013 6.29739C4.08849 6.51068 4.21799 6.70447 4.38125 6.8677C4.41846 6.90524 4.45757 6.94083 4.49844 6.97434L2.84961 10.0365C2.5454 9.94468 2.222 9.93707 1.91382 10.0145C1.60563 10.0918 1.32419 10.2513 1.09941 10.4759C0.853693 10.7218 0.68639 11.035 0.618655 11.376C0.550921 11.7169 0.585797 12.0703 0.718875 12.3914C0.851953 12.7125 1.07726 12.987 1.3663 13.1801C1.65535 13.3732 1.99516 13.4763 2.34277 13.4763C2.69039 13.4763 3.0302 13.3732 3.31925 13.1801C3.60829 12.987 3.8336 12.7125 3.96667 12.3914C4.09975 12.0703 4.13463 11.7169 4.06689 11.376C3.99916 11.035 3.83186 10.7218 3.58613 10.4759C3.54805 10.4384 3.50879 10.4032 3.46895 10.3699L5.11777 7.30774C5.36476 7.3816 5.62495 7.40036 5.87997 7.3627C6.135 7.32504 6.37866 7.23187 6.59375 7.08977L7.90977 8.40579C7.72645 8.68327 7.6256 9.00706 7.61894 9.33956C7.61228 9.67206 7.70008 9.99963 7.87215 10.2842C8.04422 10.5688 8.29348 10.7988 8.59101 10.9474C8.88854 11.0959 9.22211 11.1571 9.55299 11.1237C9.88388 11.0903 10.1985 10.9637 10.4603 10.7586C10.7221 10.5535 10.9204 10.2784 11.0321 9.96515C11.1438 9.6519 11.1643 9.3134 11.0913 8.98894C11.0184 8.66448 10.8548 8.36739 10.6197 8.13216C10.5825 8.09462 10.5434 8.05903 10.5025 8.02552L12.1514 4.96341C12.5264 5.07648 12.9284 5.06108 13.2936 4.91965C13.6588 4.77822 13.9664 4.51887 14.1674 4.18274C14.3685 3.84662 14.4515 3.45297 14.4033 3.06429C14.3552 2.6756 14.1786 2.31413 13.9016 2.03723H13.8998ZM3.08867 12.4669C2.94116 12.6144 2.75323 12.7148 2.54865 12.7555C2.34407 12.7961 2.13203 12.7752 1.93933 12.6954C1.74663 12.6156 1.58193 12.4804 1.46605 12.3069C1.35018 12.1335 1.28833 11.9296 1.28833 11.721C1.28833 11.5124 1.35018 11.3085 1.46605 11.1351C1.58193 10.9617 1.74663 10.8265 1.93933 10.7467C2.13203 10.6668 2.34407 10.6459 2.54865 10.6866C2.75323 10.7272 2.94116 10.8277 3.08867 10.9751C3.286 11.1729 3.39683 11.4408 3.39683 11.7201C3.39683 11.9995 3.286 12.2674 3.08867 12.4652V12.4669ZM4.87871 6.37317C4.73125 6.22566 4.63083 6.03773 4.59016 5.83315C4.5495 5.62857 4.5704 5.41652 4.65024 5.22383C4.73008 5.03113 4.86526 4.86643 5.03869 4.75055C5.21213 4.63468 5.41603 4.57283 5.62461 4.57283C5.83319 4.57283 6.03709 4.63468 6.21053 4.75055C6.38396 4.86643 6.51915 5.03113 6.59898 5.22383C6.67882 5.41652 6.69973 5.62857 6.65906 5.83315C6.61839 6.03773 6.51798 6.22566 6.37051 6.37317C6.27241 6.47099 6.15601 6.54853 6.02794 6.60135C5.89988 6.65417 5.76266 6.68125 5.62413 6.68103C5.48559 6.68082 5.34846 6.65331 5.22056 6.60008C5.09266 6.54686 4.9765 6.46896 4.87871 6.37083V6.37317ZM10.1205 10.1232C9.97299 10.2706 9.78507 10.3711 9.58049 10.4117C9.37591 10.4524 9.16386 10.4315 8.97116 10.3516C8.77846 10.2718 8.61376 10.1366 8.49789 9.96319C8.38201 9.78976 8.32017 9.58586 8.32017 9.37727C8.32017 9.16869 8.38201 8.96479 8.49789 8.79136C8.61376 8.61792 8.77846 8.48274 8.97116 8.4029C9.16386 8.32307 9.37591 8.30216 9.58049 8.34283C9.78507 8.38349 9.97299 8.48391 10.1205 8.63137C10.3177 8.82908 10.4284 9.0969 10.4284 9.3761C10.4284 9.65531 10.3177 9.92312 10.1205 10.1208V10.1232ZM13.4018 4.02942C13.2542 4.17689 13.0663 4.2773 12.8617 4.31797C12.6572 4.35864 12.4451 4.33773 12.2524 4.25789C12.0597 4.17806 11.895 4.04288 11.7791 3.86944C11.6633 3.69601 11.6014 3.49211 11.6014 3.28352C11.6014 3.07494 11.6633 2.87104 11.7791 2.69761C11.895 2.52417 12.0597 2.38899 12.2524 2.30915C12.4451 2.22932 12.6572 2.20841 12.8617 2.24908C13.0663 2.28974 13.2542 2.39016 13.4018 2.53763C13.5988 2.73523 13.7095 3.00287 13.7096 3.28194C13.7097 3.561 13.5992 3.82873 13.4023 4.02649L13.4018 4.02942Z" fill="#5C5F62"/>
</svg>
