<svg width="16" height="16" viewBox="0 0 16 16" fill="none" xmlns="http://www.w3.org/2000/svg">
<path d="M13.92 4.24428L8.42 1.23303C8.29141 1.16201 8.1469 1.12476 8 1.12476C7.8531 1.12476 7.70859 1.16201 7.58 1.23303L2.08 4.24428C1.94238 4.31958 1.82753 4.43049 1.74748 4.56541C1.66744 4.70032 1.62513 4.85428 1.625 5.01115V10.9887C1.62513 11.1455 1.66744 11.2995 1.74748 11.4344C1.82753 11.5693 1.94238 11.6802 2.08 11.7555L7.58 14.7668C7.70863 14.8377 7.85312 14.8749 8 14.8749C8.14688 14.8749 8.29137 14.8377 8.42 14.7668L13.92 11.7555C14.0576 11.6802 14.1725 11.5693 14.2525 11.4344C14.3326 11.2995 14.3749 11.1455 14.375 10.9887V5.01115C14.3749 4.85428 14.3326 4.70032 14.2525 4.56541C14.1725 4.43049 14.0576 4.31958 13.92 4.24428ZM7.9375 1.89053C7.9559 1.88046 7.97653 1.87519 7.9975 1.87519C8.01847 1.87519 8.0391 1.88046 8.0575 1.89053L13.2819 4.7499L11.1606 5.91053L5.87813 3.01928L7.9375 1.89053ZM7.625 13.9374L2.4375 11.098C2.41833 11.087 2.40245 11.071 2.39146 11.0518C2.38048 11.0326 2.3748 11.0108 2.375 10.9887V5.41615L7.625 8.29115V13.9374ZM2.71813 4.7499L5.0975 3.44678L10.3794 6.33803L8 7.6399L2.71813 4.7499ZM13.625 10.9887C13.6252 11.0108 13.6195 11.0326 13.6085 11.0518C13.5976 11.071 13.5817 11.087 13.5625 11.098L8.375 13.9374V8.2899L10.625 7.05803V9.4999C10.625 9.59936 10.6645 9.69474 10.7348 9.76507C10.8052 9.83539 10.9005 9.8749 11 9.8749C11.0995 9.8749 11.1948 9.83539 11.2652 9.76507C11.3355 9.69474 11.375 9.59936 11.375 9.4999V6.64803L13.625 5.41615V10.9887Z" fill="#1868DB"/>
</svg>
