<svg width="11" height="11" viewBox="0 0 11 11" fill="none" xmlns="http://www.w3.org/2000/svg">
<path d="M9.23491 2.73109L5.60171 0.743151C5.50463 0.689512 5.39554 0.661377 5.28463 0.661377C5.17372 0.661377 5.06462 0.689512 4.96755 0.743151L1.33435 2.73192C1.23059 2.78869 1.14398 2.87227 1.08355 2.97395C1.02313 3.07562 0.991113 3.19165 0.990845 3.30992V7.25855C0.991113 7.37683 1.02313 7.49286 1.08355 7.59453C1.14398 7.69621 1.23059 7.77979 1.33435 7.83656L4.96755 9.82533C5.06462 9.87897 5.17372 9.9071 5.28463 9.9071C5.39554 9.9071 5.50463 9.87897 5.60171 9.82533L9.23491 7.83656C9.33867 7.77979 9.42528 7.69621 9.4857 7.59453C9.54613 7.49286 9.57814 7.37683 9.57841 7.25855V3.31034C9.57836 3.19185 9.54645 3.07556 9.48602 2.97365C9.42558 2.87174 9.33885 2.78796 9.23491 2.73109ZM5.28463 1.32116L8.60157 3.13776L7.37248 3.81073L4.05512 1.99413L5.28463 1.32116ZM5.28463 4.95436L1.96768 3.13776L3.36729 2.37149L6.68424 4.18809L5.28463 4.95436ZM1.65143 3.71577L4.95434 5.52329V9.06525L1.65143 7.25897V3.71577ZM8.91783 7.25732L5.61492 9.06525V5.52494L6.93608 4.80201V6.27553C6.93608 6.36312 6.97088 6.44713 7.03282 6.50908C7.09476 6.57102 7.17878 6.60582 7.26637 6.60582C7.35397 6.60582 7.43798 6.57102 7.49993 6.50908C7.56187 6.44713 7.59666 6.36312 7.59666 6.27553V4.44035L8.91783 3.71577V7.2569V7.25732Z" fill="#5C5F62"/>
</svg>
