<svg width="16" height="16" viewBox="0 0 16 16" fill="none" xmlns="http://www.w3.org/2000/svg">
<path d="M10.375 9.50001C10.375 9.59947 10.3355 9.69485 10.2652 9.76518C10.1948 9.8355 10.0995 9.87501 10 9.87501H6C5.90054 9.87501 5.80516 9.8355 5.73484 9.76518C5.66451 9.69485 5.625 9.59947 5.625 9.50001C5.625 9.40055 5.66451 9.30517 5.73484 9.23485C5.80516 9.16452 5.90054 9.12501 6 9.12501H10C10.0995 9.12501 10.1948 9.16452 10.2652 9.23485C10.3355 9.30517 10.375 9.40055 10.375 9.50001ZM10 7.12501H6C5.90054 7.12501 5.80516 7.16452 5.73484 7.23485C5.66451 7.30517 5.625 7.40055 5.625 7.50001C5.625 7.59947 5.66451 7.69485 5.73484 7.76517C5.80516 7.8355 5.90054 7.87501 6 7.87501H10C10.0995 7.87501 10.1948 7.8355 10.2652 7.76517C10.3355 7.69485 10.375 7.59947 10.375 7.50001C10.375 7.40055 10.3355 7.30517 10.2652 7.23485C10.1948 7.16452 10.0995 7.12501 10 7.12501ZM13.375 3.00001V13.5C13.375 13.7321 13.2828 13.9546 13.1187 14.1187C12.9546 14.2828 12.7321 14.375 12.5 14.375H3.5C3.26794 14.375 3.04538 14.2828 2.88128 14.1187C2.71719 13.9546 2.625 13.7321 2.625 13.5V3.00001C2.625 2.76795 2.71719 2.54539 2.88128 2.38129C3.04538 2.2172 3.26794 2.12501 3.5 2.12501H5.82312C6.0925 1.81132 6.42648 1.55956 6.80221 1.38696C7.17794 1.21436 7.58653 1.125 8 1.125C8.41347 1.125 8.82206 1.21436 9.19779 1.38696C9.57352 1.55956 9.9075 1.81132 10.1769 2.12501H12.5C12.7321 2.12501 12.9546 2.2172 13.1187 2.38129C13.2828 2.54539 13.375 2.76795 13.375 3.00001ZM5.875 4.00001V4.12501H10.125V4.00001C10.125 3.43642 9.90112 2.89592 9.5026 2.49741C9.10409 2.09889 8.56359 1.87501 8 1.87501C7.43641 1.87501 6.89591 2.09889 6.4974 2.49741C6.09888 2.89592 5.875 3.43642 5.875 4.00001ZM12.625 3.00001C12.625 2.96686 12.6118 2.93506 12.5884 2.91162C12.5649 2.88818 12.5332 2.87501 12.5 2.87501H10.6456C10.7973 3.23065 10.8754 3.61336 10.875 4.00001V4.50001C10.875 4.59947 10.8355 4.69485 10.7652 4.76517C10.6948 4.8355 10.5995 4.87501 10.5 4.87501H5.5C5.40054 4.87501 5.30516 4.8355 5.23484 4.76517C5.16451 4.69485 5.125 4.59947 5.125 4.50001V4.00001C5.12464 3.61336 5.20267 3.23065 5.35437 2.87501H3.5C3.46685 2.87501 3.43505 2.88818 3.41161 2.91162C3.38817 2.93506 3.375 2.96686 3.375 3.00001V13.5C3.375 13.5332 3.38817 13.565 3.41161 13.5884C3.43505 13.6118 3.46685 13.625 3.5 13.625H12.5C12.5332 13.625 12.5649 13.6118 12.5884 13.5884C12.6118 13.565 12.625 13.5332 12.625 13.5V3.00001Z" fill="#5C5F62"/>
</svg>
