<svg width="14" height="12" viewBox="0 0 14 12" fill="none" xmlns="http://www.w3.org/2000/svg">
<path d="M0.806537 5.18659V4.145H3.41988L0 0.731717L0.731716 0L4.145 3.41329V0.806537H5.18659V5.18659H0.806537ZM2.06183 11.2224C1.71104 11.2224 1.41413 11.1009 1.17109 10.8579C0.928056 10.6148 0.806537 10.3179 0.806537 9.96714V6.70888H1.84813V9.96714C1.84813 10.0295 1.86815 10.0807 1.90819 10.1208C1.94823 10.1608 1.99945 10.1808 2.06183 10.1808H7.32307V11.2224H2.06183ZM12.9584 6.62867V2.06183C12.9584 1.99945 12.9384 1.94824 12.8983 1.90819C12.8583 1.86815 12.8071 1.84813 12.7447 1.84813H6.70888V0.806537H12.7447C13.0955 0.806537 13.3924 0.928056 13.6354 1.17109C13.8785 1.41413 14 1.71104 14 2.06183V6.62867H12.9584ZM8.84552 11.2224V8.15113H14V11.2224H8.84552Z" fill="#1F1F1F"/>
</svg>
