<svg width="34" height="34" viewBox="0 0 34 34" fill="none" xmlns="http://www.w3.org/2000/svg">
<path d="M11.4252 13.5032H5.19299C4.91751 13.5032 4.65332 13.3937 4.45852 13.1989C4.26373 13.0041 4.1543 12.7399 4.1543 12.4645V6.23229C4.1543 5.95681 4.26373 5.69261 4.45852 5.49782C4.65332 5.30303 4.91751 5.19359 5.19299 5.19359C5.46847 5.19359 5.73267 5.30303 5.92746 5.49782C6.12226 5.69261 6.23169 5.95681 6.23169 6.23229V9.95731L8.13121 8.0578C10.4478 5.72957 13.594 4.41636 16.8783 4.40678H16.9471C20.2036 4.39839 23.3322 5.67326 25.6553 7.95523C25.845 8.14928 25.9512 8.40987 25.9512 8.68123C25.9512 8.95259 25.8451 9.21319 25.6554 9.40726C25.4657 9.60134 25.2076 9.71348 24.9363 9.71971C24.6651 9.72593 24.4021 9.62574 24.2037 9.44056C22.2673 7.53985 19.6605 6.47781 16.9471 6.48417H16.8887C14.152 6.4926 11.5304 7.5867 9.59966 9.52625L7.70015 11.4258H11.4252C11.7007 11.4258 11.9648 11.5352 12.1596 11.73C12.3544 11.9248 12.4639 12.189 12.4639 12.4645C12.4639 12.7399 12.3544 13.0041 12.1596 13.1989C11.9648 13.3937 11.7007 13.5032 11.4252 13.5032ZM28.0443 19.7353H21.8121C21.5367 19.7353 21.2725 19.8448 21.0777 20.0396C20.8829 20.2344 20.7734 20.4986 20.7734 20.774C20.7734 21.0495 20.8829 21.3137 21.0777 21.5085C21.2725 21.7033 21.5367 21.8127 21.8121 21.8127H25.5372L23.6376 23.7123C21.7072 25.6515 19.0862 26.7456 16.3499 26.7543H16.2915C13.5781 26.7607 10.9713 25.6987 9.03487 23.7979C8.93813 23.699 8.82258 23.6203 8.69501 23.5666C8.56744 23.5129 8.43043 23.4853 8.29203 23.4853C8.15363 23.4853 8.01662 23.513 7.88906 23.5667C7.7615 23.6204 7.64596 23.699 7.54922 23.798C7.45249 23.897 7.37651 24.0143 7.32576 24.1431C7.275 24.2718 7.25049 24.4095 7.25366 24.5478C7.25684 24.6862 7.28763 24.8225 7.34424 24.9488C7.40084 25.0751 7.48212 25.1888 7.58329 25.2833C9.90642 27.5652 13.035 28.8401 16.2915 28.8317H16.359C19.6429 28.8218 22.7886 27.5086 25.1048 25.1807L27.0056 23.2812V27.0062C27.0056 27.2817 27.115 27.5459 27.3098 27.7407C27.5046 27.9355 27.7688 28.0449 28.0443 28.0449C28.3198 28.0449 28.584 27.9355 28.7788 27.7407C28.9736 27.5459 29.083 27.2817 29.083 27.0062V20.774C29.083 20.4986 28.9736 20.2344 28.7788 20.0396C28.584 19.8448 28.3198 19.7353 28.0443 19.7353Z" fill="black"/>
</svg>
