<svg width="49" height="49" viewBox="0 0 49 49" fill="none" xmlns="http://www.w3.org/2000/svg">
<path d="M42.9213 19.5392C42.2049 18.7905 41.4638 18.0189 41.1844 17.3405C40.926 16.7191 40.9108 15.6891 40.8956 14.6914C40.8671 12.8367 40.8367 10.735 39.3753 9.27361C37.914 7.81225 35.8122 7.78185 33.9575 7.75334C32.9598 7.73814 31.9298 7.72294 31.3084 7.46449C30.6319 7.18515 29.8585 6.44402 29.1097 5.72759C27.7985 4.46767 26.3087 3.04053 24.3247 3.04053C22.3408 3.04053 20.8528 4.46767 19.5397 5.72759C18.7909 6.44402 18.0194 7.18515 17.341 7.46449C16.7234 7.72294 15.6896 7.73814 14.6919 7.75334C12.8372 7.78185 10.7354 7.81225 9.2741 9.27361C7.81274 10.735 7.79184 12.8367 7.75383 14.6914C7.73863 15.6891 7.72343 16.7191 7.46498 17.3405C7.18563 18.017 6.44451 18.7905 5.72808 19.5392C4.46816 20.8504 3.04102 22.3403 3.04102 24.3242C3.04102 26.3082 4.46816 27.7961 5.72808 29.1092C6.44451 29.858 7.18563 30.6295 7.46498 31.3079C7.72343 31.9293 7.73863 32.9593 7.75383 33.957C7.78234 35.8117 7.81274 37.9135 9.2741 39.3748C10.7354 40.8362 12.8372 40.8666 14.6919 40.8951C15.6896 40.9103 16.7196 40.9255 17.341 41.1839C18.0175 41.4633 18.7909 42.2044 19.5397 42.9208C20.8509 44.1808 22.3408 45.6079 24.3247 45.6079C26.3087 45.6079 27.7966 44.1808 29.1097 42.9208C29.8585 42.2044 30.63 41.4633 31.3084 41.1839C31.9298 40.9255 32.9598 40.9103 33.9575 40.8951C35.8122 40.8666 37.914 40.8362 39.3753 39.3748C40.8367 37.9135 40.8671 35.8117 40.8956 33.957C40.9108 32.9593 40.926 31.9293 41.1844 31.3079C41.4638 30.6314 42.2049 29.858 42.9213 29.1092C44.1813 27.798 45.6084 26.3082 45.6084 24.3242C45.6084 22.3403 44.1813 20.8523 42.9213 19.5392ZM33.0016 20.839L22.3598 31.4809C22.2186 31.6222 22.0509 31.7343 21.8664 31.8109C21.6818 31.8874 21.484 31.9267 21.2842 31.9267C21.0844 31.9267 20.8866 31.8874 20.702 31.8109C20.5175 31.7343 20.3498 31.6222 20.2086 31.4809L15.6478 26.9201C15.3625 26.6348 15.2023 26.2479 15.2023 25.8445C15.2023 25.4411 15.3625 25.0542 15.6478 24.7689C15.9331 24.4836 16.32 24.3234 16.7234 24.3234C17.1268 24.3234 17.5137 24.4836 17.799 24.7689L21.2842 28.256L30.8504 18.6878C30.9917 18.5466 31.1594 18.4345 31.3439 18.3581C31.5285 18.2817 31.7263 18.2423 31.926 18.2423C32.1258 18.2423 32.3236 18.2817 32.5081 18.3581C32.6927 18.4345 32.8604 18.5466 33.0016 18.6878C33.1429 18.8291 33.2549 18.9968 33.3313 19.1813C33.4078 19.3659 33.4471 19.5637 33.4471 19.7634C33.4471 19.9632 33.4078 20.161 33.3313 20.3455C33.2549 20.5301 33.1429 20.6978 33.0016 20.839Z" fill="#1A69D9"/>
</svg>
