<svg width="16" height="16" viewBox="0 0 16 16" fill="none" xmlns="http://www.w3.org/2000/svg">
<path d="M2.875 2.5V13.5C2.875 13.5995 2.83549 13.6948 2.76517 13.7652C2.69484 13.8355 2.59946 13.875 2.5 13.875C2.40054 13.875 2.30516 13.8355 2.23483 13.7652C2.16451 13.6948 2.125 13.5995 2.125 13.5V2.5C2.125 2.40054 2.16451 2.30516 2.23483 2.23483C2.30516 2.16451 2.40054 2.125 2.5 2.125C2.59946 2.125 2.69484 2.16451 2.76517 2.23483C2.83549 2.30516 2.875 2.40054 2.875 2.5ZM4.125 6.5V4C4.125 3.76794 4.21719 3.54538 4.38128 3.38128C4.54538 3.21719 4.76794 3.125 5 3.125H11C11.2321 3.125 11.4546 3.21719 11.6187 3.38128C11.7828 3.54538 11.875 3.76794 11.875 4V6.5C11.875 6.61491 11.8524 6.72869 11.8084 6.83485C11.7644 6.94101 11.7 7.03747 11.6187 7.11872C11.5375 7.19997 11.441 7.26442 11.3348 7.30839C11.2287 7.35237 11.1149 7.375 11 7.375H5C4.88509 7.375 4.77131 7.35237 4.66515 7.30839C4.55899 7.26442 4.46253 7.19997 4.38128 7.11872C4.30003 7.03747 4.23558 6.94101 4.19161 6.83485C4.14763 6.72869 4.125 6.61491 4.125 6.5ZM4.875 6.5C4.875 6.53315 4.88817 6.56495 4.91161 6.58839C4.93505 6.61183 4.96685 6.625 5 6.625H11C11.0332 6.625 11.0649 6.61183 11.0884 6.58839C11.1118 6.56495 11.125 6.53315 11.125 6.5V4C11.125 3.96685 11.1118 3.93505 11.0884 3.91161C11.0649 3.88817 11.0332 3.875 11 3.875H5C4.96685 3.875 4.93505 3.88817 4.91161 3.91161C4.88817 3.93505 4.875 3.96685 4.875 4V6.5ZM14.375 9.5V12C14.375 12.2321 14.2828 12.4546 14.1187 12.6187C13.9546 12.7828 13.7321 12.875 13.5 12.875H5C4.76794 12.875 4.54538 12.7828 4.38128 12.6187C4.21719 12.4546 4.125 12.2321 4.125 12V9.5C4.125 9.26794 4.21719 9.04538 4.38128 8.88128C4.54538 8.71719 4.76794 8.625 5 8.625H13.5C13.7321 8.625 13.9546 8.71719 14.1187 8.88128C14.2828 9.04538 14.375 9.26794 14.375 9.5ZM13.625 9.5C13.625 9.46685 13.6118 9.43505 13.5884 9.41161C13.5649 9.38817 13.5332 9.375 13.5 9.375H5C4.96685 9.375 4.93505 9.38817 4.91161 9.41161C4.88817 9.43505 4.875 9.46685 4.875 9.5V12C4.875 12.0332 4.88817 12.0649 4.91161 12.0884C4.93505 12.1118 4.96685 12.125 5 12.125H13.5C13.5332 12.125 13.5649 12.1118 13.5884 12.0884C13.6118 12.0649 13.625 12.0332 13.625 12V9.5Z" fill="#2E3134"/>
</svg>
