<svg width="11" height="11" viewBox="0 0 11 11" fill="none" xmlns="http://www.w3.org/2000/svg">
<g clip-path="url(#clip0_537_322)">
<path d="M10.5454 4.83048L9.96742 3.38546C9.91838 3.2632 9.83377 3.15848 9.72453 3.08486C9.61528 3.01125 9.48646 2.97214 9.35473 2.97259H7.92705V2.6423C7.92705 2.5547 7.89225 2.47069 7.83031 2.40875C7.76837 2.34681 7.68435 2.31201 7.59676 2.31201H1.32123C1.14603 2.31201 0.978008 2.38161 0.854125 2.50549C0.730241 2.62937 0.660645 2.7974 0.660645 2.97259V7.59667C0.660645 7.77186 0.730241 7.93989 0.854125 8.06377C0.978008 8.18765 1.14603 8.25725 1.32123 8.25725H2.0231C2.09586 8.54144 2.26114 8.79332 2.49287 8.9732C2.72461 9.15308 3.00962 9.25071 3.30297 9.25071C3.59633 9.25071 3.88134 9.15308 4.11307 8.9732C4.34481 8.79332 4.51009 8.54144 4.58285 8.25725H6.64717C6.71993 8.54144 6.88521 8.79332 7.11695 8.9732C7.34868 9.15308 7.63369 9.25071 7.92705 9.25071C8.2204 9.25071 8.50541 9.15308 8.73715 8.9732C8.96888 8.79332 9.13416 8.54144 9.20693 8.25725H9.90879C10.084 8.25725 10.252 8.18765 10.3759 8.06377C10.4998 7.93989 10.5694 7.77186 10.5694 7.59667V4.95434C10.5695 4.91189 10.5614 4.86983 10.5454 4.83048ZM7.92705 3.63318H9.35473L9.75108 4.62405H7.92705V3.63318ZM1.32123 2.97259H7.26647V5.61492H1.32123V2.97259ZM3.30297 8.58754C3.17232 8.58754 3.04461 8.5488 2.93597 8.47621C2.82734 8.40363 2.74267 8.30046 2.69267 8.17975C2.64268 8.05905 2.62959 7.92623 2.65508 7.79809C2.68057 7.66995 2.74349 7.55224 2.83587 7.45986C2.92825 7.36747 3.04596 7.30456 3.1741 7.27907C3.30224 7.25358 3.43506 7.26666 3.55577 7.31666C3.67647 7.36666 3.77964 7.45133 3.85223 7.55996C3.92481 7.66859 3.96355 7.79631 3.96355 7.92696C3.96355 8.10216 3.89396 8.27018 3.77007 8.39406C3.64619 8.51794 3.47817 8.58754 3.30297 8.58754ZM6.64717 7.59667H4.58285C4.51009 7.31248 4.34481 7.06059 4.11307 6.88072C3.88134 6.70084 3.59633 6.6032 3.30297 6.6032C3.00962 6.6032 2.72461 6.70084 2.49287 6.88072C2.26114 7.06059 2.09586 7.31248 2.0231 7.59667H1.32123V6.2755H7.26647V6.78374C7.11459 6.87153 6.98164 6.98859 6.87534 7.12813C6.76903 7.26768 6.69148 7.42693 6.64717 7.59667ZM7.92705 8.58754C7.7964 8.58754 7.66868 8.5488 7.56005 8.47621C7.45142 8.40363 7.36675 8.30046 7.31675 8.17975C7.26675 8.05905 7.25367 7.92623 7.27916 7.79809C7.30465 7.66995 7.36756 7.55224 7.45995 7.45986C7.55233 7.36747 7.67003 7.30456 7.79817 7.27907C7.92631 7.25358 8.05914 7.26666 8.17984 7.31666C8.30055 7.36666 8.40372 7.45133 8.4763 7.55996C8.54889 7.66859 8.58763 7.79631 8.58763 7.92696C8.58763 8.10216 8.51803 8.27018 8.39415 8.39406C8.27027 8.51794 8.10224 8.58754 7.92705 8.58754ZM9.90879 7.59667H9.20693C9.13329 7.31317 8.9677 7.06211 8.73609 6.8828C8.50449 6.70349 8.21995 6.60607 7.92705 6.60579V5.28463H9.90879V7.59667Z" fill="#5C5F62"/>
</g>
<defs>
<clipPath id="clip0_537_322">
<rect width="10.5693" height="10.5693" fill="white"/>
</clipPath>
</defs>
</svg>
